<svg width="359" height="35" viewBox="0 0 359 35" fill="none" xmlns="http://www.w3.org/2000/svg">
<path d="M21.9279 17.9396C22.418 17.9694 22.9131 17.9903 23.3932 18.0344C23.705 18.062 23.8394 17.9836 24.0478 17.943C24.1173 17.9289 24.1919 17.9004 24.2563 17.9042C24.7415 17.934 25.2265 17.9674 25.7117 18.0007C25.8596 18.0709 25.9529 18.1641 26.1804 18.1986C26.403 18.2314 26.6655 18.232 26.913 18.2487C27.2398 18.2692 27.5665 18.2897 27.8932 18.3084C28.0566 18.3177 28.19 18.352 28.2439 18.4166C28.2537 18.4273 28.1446 18.4539 28.085 18.4698C27.8864 18.523 27.6927 18.5833 27.4744 18.6239C27.266 18.6628 27.0089 18.5978 26.7856 18.6473C26.2843 18.7587 26.2793 18.7569 25.8981 18.7345C25.5714 18.7141 25.2447 18.6918 24.9179 18.6767C24.8535 18.673 24.779 18.6996 24.7095 18.7137C24.5011 18.7526 24.3666 18.8417 24.0598 18.8069C23.8272 18.7795 23.5697 18.7735 23.3271 18.7586C23.1236 18.81 22.9348 18.8686 22.7165 18.9092C22.513 18.948 22.4533 18.9783 22.5618 19.0304C22.6604 19.079 22.799 19.099 22.9822 19.103C23.1457 19.1052 23.309 19.1217 23.4724 19.131C23.5565 19.1366 23.6357 19.1404 23.7149 19.1459C24.0268 19.1664 24.0268 19.1664 24.5975 19.0533C24.8208 19.0091 25.0728 19.0724 25.2862 19.03C25.4301 19.0017 25.5543 18.9591 25.6933 18.929C25.7528 18.9166 25.8469 18.9151 25.9212 18.9188C26.1687 18.932 26.4163 18.9415 26.6539 18.9653C26.8221 18.9819 26.9207 19.0322 26.9005 19.0822C26.8953 19.1019 26.7762 19.1302 26.7069 19.1318C26.5483 19.135 26.3802 19.1096 26.2265 19.1217C26.0778 19.1339 25.9239 19.1692 25.8146 19.2083C25.5909 19.2901 25.339 19.2161 25.1258 19.237C24.9027 19.2598 24.7188 19.3309 24.5054 19.3733C24.4508 19.3839 24.347 19.3657 24.2628 19.3601C24.0202 19.347 23.7775 19.3357 23.5349 19.3226C23.3314 19.3739 23.113 19.4199 22.9292 19.4785C22.5964 19.585 22.2394 19.6252 21.8089 19.5723C21.5665 19.5431 21.3287 19.5533 21.1348 19.6225C20.9361 19.6936 20.7082 19.6859 20.4557 19.671C20.2231 19.6561 19.9857 19.6161 19.7475 19.6656C19.2314 19.7753 19.2263 19.7806 18.6175 19.7362C18.4343 19.7232 18.2957 19.7193 18.1566 19.7601C18.0275 19.7974 17.8885 19.8292 17.7544 19.8646C17.5118 19.8515 17.2643 19.8384 17.0217 19.8235C16.7099 19.8031 16.5363 19.8277 16.4611 19.9276C16.416 19.9884 16.3956 20.0437 16.2863 20.0846C16.157 20.1344 16.0184 20.1322 15.8303 20.1175C15.6521 20.1045 15.5235 20.0845 15.4498 20.02C15.4203 19.9931 15.3611 19.9679 15.3068 19.9463C15.2623 19.9301 15.1932 19.9049 15.1535 19.9083C15.0792 19.9153 14.98 19.9347 14.955 19.9579C14.7103 20.1737 14.7103 20.1755 14.4621 20.2375C14.189 20.3066 13.906 20.3685 13.6577 20.4466C13.4341 20.5158 13.2116 20.4849 12.9688 20.4843C12.7856 20.4838 12.6662 20.5301 12.6807 20.5766C12.6903 20.6034 12.7594 20.6429 12.8187 20.6467C13.3039 20.6836 13.7939 20.7152 14.2841 20.7415C14.3434 20.7452 14.418 20.7132 14.4875 20.6973C14.6265 20.6654 14.7508 20.6156 14.8995 20.6053C15.0482 20.5949 15.2213 20.6222 15.3847 20.6315C15.5481 20.6409 15.7212 20.6645 15.8699 20.6506C16.0187 20.6367 16.138 20.5851 16.277 20.5514C16.3416 20.5355 16.4309 20.5125 16.4853 20.518C16.8465 20.5618 17.1146 20.5034 17.3729 20.4253C17.4275 20.4094 17.5217 20.3989 17.591 20.4026C18.1653 20.4344 18.7346 20.4716 19.3088 20.507C19.5415 20.5219 19.7304 20.4597 19.7809 20.3543C19.8062 20.2954 19.8562 20.2365 19.8567 20.1774C19.8577 20.0701 20.1307 20.0118 20.3287 20.0248C20.6554 20.0435 20.9872 20.0586 21.3089 20.0862C21.5712 20.1083 21.7943 20.0874 21.9732 20.0235C22.182 19.9506 22.4195 19.9655 22.6571 19.9858C22.8353 20.0005 22.8844 20.0597 22.8731 20.2081C22.8621 20.3279 22.946 20.3657 23.2678 20.3861C23.6737 20.4122 24.0846 20.4382 24.4955 20.4589C24.5599 20.4627 24.6344 20.4324 24.6989 20.4165C24.8379 20.3846 24.9623 20.3331 25.111 20.3227C25.2597 20.3105 25.4328 20.3378 25.5961 20.3489C25.7595 20.3583 25.9327 20.3837 26.0814 20.3716C26.2301 20.3594 26.3544 20.3061 26.4885 20.2724C26.553 20.2565 26.6324 20.2334 26.6968 20.2372C27.0236 20.2523 27.3503 20.2746 27.677 20.295C28.0434 20.3174 28.0434 20.3174 28.5645 20.2078C28.8027 20.1583 29.0401 20.1982 29.2727 20.2131C29.5202 20.228 29.7531 20.2357 29.9469 20.1647C30.0761 20.1185 30.2199 20.0902 30.3734 20.0995C30.7843 20.122 31.1902 20.1498 31.6011 20.1723C31.6704 20.1761 31.7646 20.1673 31.8192 20.1514C32.0825 20.0769 32.3406 20.0185 32.7068 20.057C33.0235 20.0899 33.3652 20.0926 33.682 20.1237C33.8552 20.1403 33.934 20.1977 33.8989 20.2423C33.8789 20.2655 33.7746 20.2921 33.7052 20.2919C33.5467 20.2933 33.3736 20.2661 33.2249 20.2764C32.9176 20.2972 32.7627 20.447 32.3619 20.4049C32.1243 20.3793 31.8768 20.3697 31.6292 20.362C31.5648 20.36 31.4952 20.3938 31.4256 20.4115C31.2271 20.4594 31.0531 20.5215 30.7661 20.4886C30.5286 20.463 30.2761 20.4552 30.0335 20.4403C29.6473 20.4161 29.6473 20.4179 29.146 20.5258C28.9078 20.5771 28.6705 20.5354 28.4378 20.5223C28.2645 20.5129 28.1012 20.4946 27.9623 20.5193C27.749 20.5563 27.5946 20.6418 27.3321 20.6358C27.0845 20.6298 26.8421 20.6042 26.5945 20.5946C26.441 20.5889 26.297 20.6172 26.1728 20.6652C26.0435 20.7131 25.9047 20.7342 25.7364 20.7231C25.4938 20.7082 25.2463 20.6897 24.9987 20.6802C24.9294 20.6782 24.8499 20.6941 24.7854 20.7083C24.6464 20.7401 24.5124 20.7773 24.3784 20.811C24.1358 20.7997 23.8881 20.7955 23.6505 20.7734C23.4673 20.7569 23.3386 20.7637 23.1896 20.7991C23.001 20.847 22.8466 20.9324 22.5399 20.8906C22.3865 20.8705 22.2081 20.8754 22.0547 20.8572C21.8668 20.8334 21.7379 20.8421 21.6037 20.8954C21.3501 20.9967 21.0331 20.9977 20.7065 20.9576C20.3503 20.9138 20.0824 20.9632 19.8142 21.0413C19.5311 21.1228 19.5311 21.121 19.3113 21.319C19.2464 21.3761 19.063 21.4025 18.9095 21.3914C18.6521 21.3729 18.4291 21.3813 18.2403 21.4488C18.0415 21.5216 17.8039 21.5121 17.5613 21.4918C17.2396 21.4642 16.9178 21.4402 16.6544 21.5433C16.5251 21.593 16.3862 21.6052 16.213 21.5922C15.7229 21.5588 15.2278 21.538 14.7477 21.4974C14.4557 21.4717 14.2868 21.5285 14.0883 21.5763C13.8202 21.6418 13.5273 21.7001 13.5261 21.8414C13.5258 21.8647 13.4563 21.8913 13.3966 21.9091C13.2675 21.9463 13.1285 21.9782 12.9944 22.0136C12.7958 22.0668 12.6023 22.111 12.3301 22.0817C12.0926 22.0579 11.8401 22.0501 11.5975 22.0334C11.3549 22.0167 11.1321 22.0073 10.9135 22.0747C10.6602 22.151 10.3921 22.2237 10.1043 22.2802C9.90084 22.3208 9.63393 22.2504 9.4155 22.3053C9.28143 22.339 9.15238 22.378 9.00847 22.4063C8.94894 22.4186 8.85478 22.4095 8.77556 22.4057C8.61217 22.3981 8.44383 22.3924 8.28548 22.3741C8.1024 22.354 7.9637 22.3572 7.82465 22.398C7.69552 22.4353 7.56621 22.4868 7.41752 22.4972C7.19447 22.5127 6.94754 22.4406 6.72388 22.5223C6.60959 22.5632 6.46555 22.6022 6.31682 22.6143C6.16811 22.6265 5.99502 22.5992 5.83649 22.6006C5.76716 22.6004 5.68273 22.6288 5.64291 22.652C5.61801 22.6645 5.65231 22.6985 5.68681 22.7165C5.7312 22.7381 5.79536 22.7669 5.85972 22.7706C6.34982 22.804 6.83993 22.832 7.33 22.8636C7.62208 22.8822 7.62211 22.8822 8.21255 22.771C8.3515 22.7445 8.50498 22.7502 8.67821 22.7632C8.91088 22.7799 9.14833 22.8109 9.39133 22.7793C9.70943 22.6584 10.1009 22.6486 10.5165 22.6962C10.6897 22.7163 10.8483 22.7166 10.9774 22.683C11.2504 22.6157 11.5382 22.5538 11.7817 22.4739C11.9705 22.4118 12.0596 22.4066 12.1381 22.4927C12.1626 22.5196 12.1872 22.5482 12.182 22.5733C12.1515 22.6626 12.0962 22.7501 12.0656 22.8395C12.0555 22.8645 12.0948 22.8932 12.1193 22.9201C12.1979 22.9954 12.3019 22.9903 12.4759 22.9281C12.6498 22.8659 12.8583 22.8253 13.1354 22.8546C13.3729 22.8803 13.6305 22.8773 13.868 22.9047C14.2342 22.945 14.4923 22.8884 14.7555 22.8121C14.8101 22.7961 14.9043 22.7874 14.9736 22.7912C15.7113 22.8341 16.4439 22.8824 17.1816 22.9254C17.34 22.9347 17.484 22.9082 17.6082 22.8602C17.7374 22.8123 17.8814 22.7876 18.0398 22.7969C18.6933 22.8361 19.3468 22.8717 20.0002 22.9198C20.2675 22.9401 20.4806 22.9174 20.6644 22.8552C20.8035 22.8091 20.9325 22.7951 21.1058 22.8009C21.294 22.8067 21.4275 22.8249 21.5212 22.877C21.6098 22.9273 21.5453 22.9575 21.3468 22.9964C21.1334 23.0388 20.9348 23.0938 20.7312 23.1434C20.5678 23.1358 20.4045 23.1211 20.246 23.1225C20.1766 23.1223 20.1119 23.1544 20.0424 23.1721C19.8438 23.2235 19.6601 23.2749 19.378 23.2456C19.1405 23.2199 18.888 23.214 18.6454 23.1973C18.3088 23.1768 18.3087 23.1768 17.7628 23.2881C17.6239 23.3164 17.4753 23.3142 17.2972 23.2977C17.1438 23.2848 16.985 23.3094 16.8755 23.3628C16.8307 23.3842 16.8452 23.42 16.9382 23.5383C16.9374 23.6259 16.8339 23.5863 16.7997 23.529C16.746 23.4466 16.8503 23.42 17.048 23.4652C17.1864 23.4978 17.2552 23.5444 17.2202 23.5819C17.2002 23.6015 17.1058 23.6263 16.9382 23.5383C16.5033 23.4299 16.1716 23.4166 15.8549 23.3872C15.6668 23.3706 15.5479 23.3775 15.3989 23.4236C15.22 23.4786 15.0412 23.5372 14.7492 23.5079C14.4325 23.4749 14.0957 23.4705 13.774 23.4429C13.477 23.4171 13.3227 23.4954 13.1341 23.5415C12.9057 23.5963 12.6537 23.5331 12.4454 23.5648C12.2272 23.5965 12.0729 23.6748 11.8202 23.6885C11.4541 23.6393 11.2204 23.7281 10.9425 23.7865C10.7241 23.8307 10.467 23.7907 10.2344 23.7704C9.97204 23.7483 9.75387 23.7675 9.57 23.8314C9.36132 23.9042 9.12859 23.8876 8.89097 23.8709C8.33655 23.8338 8.31689 23.8283 7.99403 23.9259C7.76056 23.9969 7.53789 23.9641 7.30518 23.9546C7.10165 24.0024 6.90306 24.0538 6.68968 24.0962C6.63508 24.1068 6.53124 24.0887 6.44709 24.0831C6.20451 24.0682 5.957 24.0533 5.71442 24.0384C5.55105 24.029 5.37792 24.0018 5.22924 24.0121C5.08053 24.0243 4.95619 24.0759 4.82215 24.1095C4.68808 24.1432 4.54907 24.1768 4.41996 24.2123C4.22132 24.2654 4.03277 24.3097 3.75564 24.2822C3.51809 24.2583 3.27051 24.2506 3.023 24.2339C2.71114 24.2134 2.72098 24.2188 2.14047 24.3247C1.82786 24.383 1.50661 24.3106 1.18966 24.3027C1.03119 24.2987 0.877414 24.318 0.767962 24.3696C0.72318 24.391 0.737685 24.4268 0.722546 24.4572C1.5394 24.5075 2.36135 24.5506 3.16818 24.6116C3.48001 24.6356 3.64396 24.5717 3.81287 24.5184C4.09103 24.4332 4.45646 24.5593 4.71999 24.4491C4.8791 24.3833 5.10735 24.3463 5.37945 24.3792C5.5378 24.3975 5.70624 24.3961 5.86955 24.4126C6.28526 24.4529 6.66666 24.4557 6.99963 24.3331C7.11394 24.2904 7.27752 24.2676 7.39679 24.2267C7.53587 24.1824 7.66992 24.1576 7.83329 24.167C8.57093 24.2117 9.30357 24.2564 10.0362 24.3047C10.1006 24.3085 10.1648 24.3355 10.2191 24.3553C10.3573 24.4057 10.3124 24.4449 10.0892 24.4766C10.0148 24.4871 9.95508 24.5102 9.88558 24.5279C9.75154 24.5616 9.6273 24.615 9.4786 24.6271C9.32986 24.6393 9.15663 24.6138 8.99326 24.6045C8.82989 24.5951 8.65676 24.5679 8.50807 24.5782C8.35937 24.5904 8.23515 24.642 8.09615 24.6738C8.03161 24.6898 7.95202 24.7164 7.88765 24.7144C7.56084 24.7029 7.23909 24.6824 6.9123 24.6655C6.7088 24.7133 6.53479 24.7827 6.29194 24.7982C6.13828 24.8085 5.97504 24.7884 5.81649 24.7916C5.74714 24.7932 5.65779 24.8199 5.62291 24.843C5.60297 24.8573 5.667 24.8932 5.71637 24.9112C5.90395 24.9797 6.16157 24.9678 6.3942 24.9898C6.64658 25.0137 6.87455 25.0071 7.06836 24.9378C7.19757 24.8916 7.3415 24.8669 7.49993 24.8763C7.91085 24.9005 8.31673 24.9283 8.72769 24.949C8.79699 24.9528 8.88133 24.9369 8.94584 24.9245C9.46692 24.8167 9.46695 24.8131 9.83328 24.8373C10.3729 24.8726 10.3728 24.8726 10.7352 24.7787C10.8048 24.7609 10.8794 24.7272 10.9388 24.7291C11.5132 24.7591 12.0825 24.7891 12.6518 24.8317C12.8399 24.8446 12.9686 24.845 13.1077 24.7988C13.227 24.7597 13.3661 24.7154 13.5148 24.705C13.6684 24.6946 13.8366 24.7219 14 24.7312C14.1634 24.7406 14.3365 24.7643 14.4803 24.7503C14.629 24.7364 14.7583 24.6866 14.8874 24.6511C15.0214 24.6139 15.165 24.616 15.3482 24.6308C15.9125 24.6733 15.9175 24.668 16.4782 24.5585C16.5427 24.5461 16.627 24.532 16.6963 24.5357C17.1073 24.5582 17.5132 24.586 17.9241 24.6085C18.0825 24.6178 18.2363 24.595 18.3458 24.5434C18.3905 24.522 18.3759 24.4862 18.4063 24.4165C18.4411 24.4005 18.4013 24.429 18.3912 24.4558C18.3169 24.4521 18.2276 24.4554 18.1733 24.441C18.0349 24.4067 17.9661 24.3618 18.0011 24.3243C18.0211 24.3047 18.1153 24.2799 18.1748 24.28C18.2837 24.2803 18.3775 24.3199 18.4063 24.4165C18.7178 24.4763 19.0497 24.4896 19.3714 24.5191C19.5594 24.5374 19.6783 24.5288 19.8274 24.4826C20.0062 24.4258 20.19 24.3708 20.482 24.4001C20.7987 24.4331 21.1355 24.4393 21.4621 24.4652C21.8383 24.4947 22.0033 24.3341 22.3202 24.3385C22.6471 24.3429 22.9737 24.3741 23.3005 24.3963C23.5876 24.4149 23.5876 24.4149 24.183 24.3001C24.4014 24.2577 24.6583 24.321 24.8717 24.2768C25.0156 24.2485 25.1399 24.2059 25.2788 24.1758C25.3384 24.1635 25.4325 24.1637 25.5068 24.1674C25.9177 24.1899 26.3336 24.2053 26.7295 24.2456C27.1798 24.2932 27.5221 24.2439 27.845 24.1392C28.251 24.1599 28.662 24.1716 29.0629 24.2066C29.3549 24.2323 29.5239 24.1737 29.7224 24.1259C29.7919 24.11 29.8515 24.0833 29.9259 24.0763C30.0003 24.0694 30.0894 24.0839 30.1686 24.0895C30.4954 24.1099 30.8321 24.1197 31.1488 24.1527C31.5397 24.1948 31.6896 24.0485 31.992 24.0313C32.1943 24.1195 32.3021 24.2396 32.7032 24.2495C33.0301 24.2575 33.3567 24.2869 33.6834 24.3074C33.8468 24.3167 34.0102 24.3278 34.1735 24.3372C34.4359 24.3539 34.5591 24.424 34.5036 24.5312C34.4734 24.5901 34.4481 24.6491 34.4228 24.708C34.3723 24.8134 34.4953 24.9032 34.7033 24.9162C35.2775 24.9516 35.8468 24.9888 36.4211 25.0206C36.5746 25.0299 36.7235 24.9999 36.8478 24.9519C36.977 24.9039 37.1208 24.8828 37.2792 24.8921C37.8534 24.9275 38.4227 24.9647 38.997 24.9965C39.0614 25.0003 39.1457 24.9826 39.2102 24.9684C39.3492 24.9366 39.4833 24.8993 39.6174 24.8657C39.9442 24.8826 40.266 24.8941 40.5878 24.9163C41.1075 24.9498 41.1076 24.9516 41.4899 24.8542C41.5594 24.8365 41.629 24.8027 41.6934 24.8046C41.941 24.8124 42.1835 24.8308 42.431 24.8475C43.1587 24.8958 43.1588 24.8958 43.3723 24.8427C43.5659 24.7931 43.7399 24.7327 44.0318 24.762C44.3486 24.795 44.6853 24.8066 45.012 24.8253C45.2546 24.8384 45.4972 24.8533 45.7398 24.8575C45.8042 24.8594 45.8738 24.8256 45.9433 24.8079C46.142 24.7529 46.3356 24.7087 46.6077 24.7397C46.7661 24.758 46.9345 24.762 47.0978 24.7714C47.5236 24.7974 47.5236 24.7974 48.223 24.6918C48.2924 24.6813 48.3767 24.669 48.446 24.6745C49.0203 24.7081 49.5896 24.7453 50.1639 24.7771C50.2332 24.7808 50.3174 24.7703 50.3869 24.7615C51.1704 24.6597 51.1705 24.6597 52.0021 24.7119C52.319 24.7305 52.3289 24.7377 52.6616 24.6437C52.8106 24.6029 52.9345 24.5836 53.1078 24.5965C53.7612 24.641 54.4197 24.6713 55.0681 24.723C55.3602 24.7451 55.5291 24.6919 55.7277 24.6441C55.7972 24.6282 55.8717 24.5926 55.9312 24.5945C56.5847 24.6301 57.2382 24.6728 57.8918 24.7084C57.9512 24.7122 58.0257 24.6766 58.0952 24.6606C58.2293 24.6288 58.3585 24.5808 58.5072 24.5704C58.6609 24.5601 58.829 24.5873 58.9973 24.5967C59.4083 24.6209 59.4083 24.6192 59.8848 24.5148C59.9493 24.5006 60.0336 24.4812 60.098 24.4849C60.7515 24.5223 61.41 24.5543 62.0584 24.6078C62.4296 24.6373 62.6827 24.586 62.9459 24.5116C63.0006 24.4956 63.0947 24.4887 63.164 24.4924C63.9017 24.5354 64.6343 24.5837 65.372 24.6266C65.5254 24.6359 65.6744 24.6059 65.7986 24.5597C65.9974 24.4869 66.2301 24.4964 66.4776 24.5131C67.0469 24.552 67.0519 24.5503 67.3895 24.4652C67.459 24.4475 67.5186 24.4244 67.593 24.4157C67.6624 24.4069 67.7515 24.4125 67.8257 24.4162C68.1525 24.4349 68.4792 24.4554 68.806 24.4759C69.1327 24.4963 69.4646 24.5079 69.7863 24.5391C70.1822 24.5776 70.3715 24.4618 70.6493 24.4088C71.0553 24.4331 71.4712 24.4484 71.8721 24.487C72.1789 24.5163 72.3232 24.438 72.5266 24.3974C72.5961 24.3832 72.6708 24.353 72.7351 24.3567C73.4728 24.3979 74.2104 24.4426 74.9431 24.4927C75.1213 24.5039 75.2402 24.4899 75.3892 24.4473C75.722 24.3515 75.7368 24.3552 76.2913 24.3923C76.5339 24.409 76.7666 24.4239 76.9753 24.3511C77.1591 24.2853 77.3821 24.2698 77.6444 24.2919C77.9662 24.3195 78.2979 24.3346 78.6246 24.3533C78.9514 24.3738 79.278 24.4014 79.6049 24.4112C79.8673 24.4207 80.0266 24.3371 80.235 24.2947C80.2995 24.2823 80.3887 24.2807 80.4629 24.2845C80.7897 24.3014 81.1264 24.3147 81.4431 24.3459C81.8291 24.3844 82.043 24.2866 82.316 24.23C82.3755 24.2176 82.4746 24.225 82.5489 24.2306C83.1232 24.2642 83.6924 24.3014 84.2667 24.3368C84.4702 24.289 84.6787 24.243 84.8822 24.1952C85.2089 24.2139 85.5357 24.2343 85.8624 24.253C86.11 24.2679 86.3625 24.2739 86.5951 24.3013C86.8969 24.3378 87.0463 24.2541 87.2498 24.2135C87.3192 24.1994 87.3938 24.1692 87.4581 24.1729C87.8691 24.1936 88.28 24.216 88.6859 24.2475C89.0719 24.2788 89.2269 24.1182 89.5439 24.1208C89.8708 24.1234 90.2074 24.1474 90.5242 24.1804C90.8903 24.2189 91.1484 24.1623 91.4117 24.086C91.4663 24.07 91.5605 24.0613 91.6298 24.0651C92.0407 24.0875 92.4466 24.1154 92.8575 24.1378C92.9268 24.1416 93.0111 24.1329 93.0806 24.1223C93.8641 24.0187 93.8642 24.0169 94.2057 24.0392C94.4483 24.0541 94.6958 24.0726 94.9434 24.0822C95.0127 24.0859 95.0971 24.07 95.1616 24.0559C95.6778 23.948 95.6778 23.9462 96.0491 23.9686C96.3758 23.9891 96.7026 24.0096 97.0293 24.03C97.2328 23.9822 97.4413 23.9363 97.6448 23.8885C98.0508 23.9127 98.4667 23.9316 98.8676 23.9648C99.0557 23.9796 99.1795 23.9745 99.3236 23.9301C99.5024 23.8769 99.6813 23.8148 99.9782 23.8459C100.295 23.8789 100.632 23.8833 100.953 23.9109C101.339 23.944 101.499 23.7817 101.811 23.7842C102.138 23.7868 102.475 23.8109 102.792 23.8439C103.158 23.8823 103.416 23.8257 103.679 23.7495C103.734 23.7335 103.828 23.7248 103.897 23.7285C104.798 23.7826 105.694 23.8367 106.595 23.8943C107.15 23.9297 107.15 23.9315 108.206 23.8357C108.28 23.8287 108.359 23.8218 108.434 23.8255C108.761 23.8424 109.097 23.8558 109.414 23.8869C109.8 23.9255 110.014 23.8294 110.287 23.771C110.346 23.7587 110.44 23.766 110.52 23.7698C110.767 23.7829 111.01 23.7997 111.257 23.8146C111.584 23.8351 111.911 23.8555 112.237 23.876C112.441 23.83 112.649 23.7822 112.853 23.7362C113.259 23.7605 113.675 23.774 114.076 23.8125C114.383 23.8419 114.527 23.7671 114.73 23.7247C114.8 23.7106 114.874 23.6804 114.939 23.6823C115.676 23.7235 116.414 23.7664 117.147 23.8183C117.449 23.8405 117.588 23.7603 117.792 23.7197C117.861 23.7074 117.94 23.6843 118.005 23.688C118.495 23.7143 118.985 23.7459 119.475 23.7775C119.752 23.7961 119.752 23.7961 120.358 23.6867C120.427 23.6743 120.506 23.662 120.576 23.6657C122.13 23.759 123.68 23.8576 125.234 23.9508C125.393 23.9602 125.537 23.9337 125.661 23.8857C125.79 23.8377 125.934 23.813 126.092 23.8224C126.746 23.8615 127.404 23.8971 128.053 23.9452C128.32 23.9656 128.533 23.9428 128.717 23.8807C128.856 23.8345 128.985 23.817 129.158 23.8281C129.485 23.8504 129.812 23.8691 130.139 23.8895C130.465 23.91 130.792 23.9305 131.119 23.951C131.446 23.9715 131.777 23.983 132.099 24.0142C132.495 24.0527 132.689 23.9423 132.962 23.8875C133.452 23.9156 133.942 23.9436 134.428 23.9734C135.081 24.0126 135.734 24.0553 136.388 24.0927C136.447 24.0964 136.522 24.0644 136.591 24.0485C136.795 24.0043 136.944 23.942 137.246 23.9624C138.711 24.0608 140.187 24.1449 141.657 24.2416C141.964 24.262 142.098 24.1854 142.307 24.1448C142.376 24.1324 142.456 24.1076 142.52 24.1113C143.337 24.1581 144.154 24.2101 144.97 24.2604C145.302 24.2809 145.302 24.2809 145.858 24.1714C145.922 24.159 146.007 24.1431 146.076 24.1469C147.141 24.2103 148.2 24.2773 149.264 24.3425C149.423 24.3518 149.567 24.3272 149.696 24.2792C149.82 24.2312 149.969 24.2047 150.122 24.2141C151.103 24.2737 152.088 24.3316 153.063 24.3966C153.325 24.4151 153.544 24.3995 153.732 24.3356C153.866 24.2894 154 24.2701 154.169 24.2812C155.639 24.3725 157.109 24.4602 158.58 24.5568C158.862 24.5754 159.06 24.5419 159.239 24.4833C159.383 24.4371 159.507 24.4285 159.685 24.4361C159.873 24.4455 159.987 24.4654 160.091 24.5193C160.224 24.5894 160.307 24.6773 160.624 24.6834C160.951 24.6896 161.283 24.7119 161.604 24.7431C161.911 24.7742 162.056 24.6941 162.249 24.6463C162.393 24.6126 162.527 24.6076 162.71 24.6242C162.878 24.6389 162.982 24.6695 163.081 24.727C163.297 24.8492 163.317 24.8492 163.585 24.773C163.729 24.7322 163.859 24.7003 164.017 24.7078C164.671 24.7452 165.324 24.7862 165.977 24.8289C166.354 24.8531 166.358 24.8567 166.642 24.768C166.781 24.7236 166.915 24.7024 167.078 24.7136C168.875 24.8253 170.672 24.9335 172.469 25.0506C172.746 25.0691 172.935 25.032 173.134 24.9788C173.198 24.9611 173.263 24.9362 173.337 24.9293C173.411 24.9223 173.496 24.9297 173.575 24.9334C174.882 25.0135 176.194 25.0901 177.496 25.1792C177.793 25.1996 177.952 25.1427 178.155 25.0967C178.225 25.0808 178.284 25.0559 178.359 25.0489C178.433 25.0437 178.522 25.0565 178.601 25.062C179.908 25.1421 181.22 25.2187 182.522 25.3078C182.834 25.3282 182.968 25.2534 183.172 25.2146C183.241 25.2004 183.316 25.1738 183.38 25.1775C183.791 25.1982 184.197 25.226 184.608 25.2503C185.588 25.3117 186.568 25.3696 187.549 25.4328C187.925 25.457 188.09 25.2982 188.407 25.3061C188.818 25.3161 189.224 25.3528 189.634 25.3789C189.961 25.3994 190.288 25.4181 190.615 25.4403C190.936 25.4608 190.936 25.4608 191.74 25.359C191.809 25.3502 191.894 25.3379 191.963 25.3417C193.106 25.4107 194.255 25.4797 195.394 25.554C195.656 25.5707 195.874 25.5623 196.063 25.4966C196.197 25.4504 196.336 25.4275 196.499 25.4387C198.217 25.5448 199.93 25.651 201.648 25.7554C201.712 25.7591 201.797 25.7414 201.861 25.7273C202 25.6954 202.134 25.6582 202.268 25.6245C202.367 25.6659 202.495 25.7038 202.559 25.7505C202.648 25.8133 202.767 25.8315 202.955 25.8426C203.143 25.8538 203.262 25.8506 203.411 25.8044C203.59 25.7476 203.773 25.7033 204.065 25.7219C205.862 25.839 207.659 25.9454 209.456 26.0607C209.754 26.0793 209.893 26.001 210.101 25.9603C210.171 25.948 210.25 25.9285 210.315 25.9323C211.052 25.9752 211.785 26.0217 212.523 26.0665C214.567 26.1931 216.612 26.3144 218.651 26.4482C219.022 26.4724 219.276 26.4282 219.539 26.352C219.593 26.336 219.688 26.3273 219.757 26.3311C222.618 26.5062 225.48 26.6832 228.336 26.8601C228.49 26.8694 228.639 26.8412 228.763 26.795C228.892 26.747 229.036 26.7241 229.194 26.7334C230.501 26.8135 231.808 26.8937 233.115 26.9756C233.442 26.9961 233.447 26.9978 233.784 26.9128C233.854 26.8951 233.928 26.8613 233.983 26.865C234.097 26.8742 234.205 26.9192 234.284 26.9802C234.363 27.0448 234.486 27.063 234.67 27.076C234.858 27.0889 234.982 27.0839 235.126 27.0413C235.309 26.9881 235.478 26.9367 235.775 26.9553C239.533 27.1934 243.29 27.4227 247.048 27.659C247.35 27.6777 247.489 27.6029 247.697 27.5623C247.767 27.5499 247.836 27.5322 247.911 27.5288C247.99 27.5254 248.074 27.5364 248.153 27.5419C254.282 27.9201 260.411 28.3 266.54 28.6781C266.906 28.7005 266.901 28.7005 267.301 28.866C267.35 28.8858 267.414 28.9128 267.484 28.9165C269.36 29.0356 271.241 29.1511 273.122 29.2666C273.939 29.3169 274.756 29.369 275.573 29.4175C275.865 29.4344 275.865 29.4344 276.561 29.6293C276.621 29.6455 276.69 29.6671 276.759 29.6709C280.027 29.8739 283.294 30.0768 286.566 30.2763C286.824 30.2912 287.031 30.3239 287.149 30.41C287.233 30.4711 287.342 30.5071 287.505 30.5182C289.792 30.6598 292.079 30.8031 294.371 30.9411C294.644 30.9579 294.807 31.0084 294.94 31.0838C294.984 31.109 295.024 31.1377 295.088 31.1557C295.147 31.172 295.236 31.1775 295.31 31.1831C297.271 31.3042 299.231 31.4288 301.197 31.5445C301.489 31.5614 301.607 31.6278 301.75 31.6979C301.799 31.7213 301.834 31.7536 301.898 31.7698C301.962 31.7843 302.056 31.7845 302.136 31.7883C303.769 31.8889 305.403 31.9913 307.037 32.0919C307.354 32.0837 307.422 32.1876 307.575 32.2506C307.629 32.2722 307.669 32.3009 307.733 32.3154C307.802 32.3299 307.891 32.3283 307.976 32.3321C309.283 32.4122 310.589 32.4977 311.901 32.5725C312.203 32.5893 312.262 32.6807 312.425 32.7437C312.479 32.7635 312.533 32.794 312.598 32.7995C313.414 32.8534 314.231 32.9037 315.048 32.9522C315.32 32.969 315.32 32.9672 315.799 33.1455C315.854 33.1653 315.918 33.1869 315.987 33.1924C317.21 33.2705 318.438 33.3451 319.665 33.4215C319.824 33.4308 319.932 33.474 320.011 33.535C320.09 33.596 320.203 33.6356 320.362 33.6449C321.342 33.7064 322.322 33.7696 323.302 33.8257C323.575 33.8406 323.753 33.8858 323.871 33.9666C323.959 34.0276 324.068 34.0583 324.241 34.0694C325.222 34.1291 326.202 34.1941 327.187 34.2466C327.474 34.2616 327.622 34.3228 327.74 34.3982C327.834 34.4592 327.943 34.481 328.126 34.4921C329.923 34.6003 331.725 34.7085 333.517 34.8273C333.819 34.8477 333.973 34.7855 334.172 34.7413C334.455 34.6794 334.718 34.6121 334.719 34.4725C334.719 34.4511 334.803 34.4263 334.863 34.4085C335.305 34.2755 335.305 34.2755 335.376 34.1326C335.416 34.045 335.462 33.9557 335.497 33.8663C335.563 33.7198 335.722 33.6827 336.177 33.7106C336.341 33.72 336.504 33.7329 336.667 33.7404C336.91 33.7535 337.094 33.695 337.139 33.5878C337.165 33.5288 337.195 33.4698 337.22 33.4109C336.973 33.396 336.978 33.3942 336.544 33.1767C336.361 33.085 336.361 33.085 336.714 32.9947C336.848 32.961 336.977 32.9238 337.121 32.8919C337.185 32.8778 337.27 32.869 337.339 32.8728C337.75 32.8953 338.156 32.9213 338.562 32.9473C339.215 32.9883 339.215 32.9883 339.881 32.8075C339.935 32.7933 340.02 32.7667 340.01 32.7524C339.956 32.6861 339.823 32.6571 339.654 32.6495C339.407 32.6382 339.164 32.6197 338.922 32.6048C338.758 32.5955 338.595 32.5843 338.431 32.575C338.279 32.5067 338.121 32.4401 337.978 32.37C337.751 32.2621 337.751 32.2585 338.064 32.1842C338.262 32.1346 338.476 32.0904 338.679 32.0444C338.922 32.0593 339.169 32.076 339.412 32.0891C339.719 32.1059 339.843 32.0723 339.923 31.9562C339.993 31.8544 339.91 31.7666 339.672 31.7445C339.43 31.7225 339.202 31.7076 339.079 31.6161C338.961 31.5282 338.753 31.4937 338.496 31.4859C338.332 31.4801 338.169 31.4672 338.006 31.4561C337.793 31.4412 337.68 31.3497 337.725 31.2479C337.751 31.1818 337.801 31.1264 337.994 31.1126C338.851 31.0521 338.861 31.0539 339.288 30.9333C339.328 30.9227 339.358 30.8906 339.343 30.8745C339.319 30.8476 339.265 30.8081 339.205 30.8026C338.636 30.7618 338.067 30.7247 337.497 30.6964C337.309 30.687 337.171 30.6741 337.107 30.6078C337.019 30.5164 337.059 30.4324 337.233 30.3702C337.288 30.3507 337.377 30.3259 337.437 30.3278C338.09 30.3616 338.739 30.4043 339.392 30.4381C339.451 30.4419 339.561 30.4117 339.586 30.3885C339.636 30.3457 339.562 30.2883 339.389 30.2682C339.161 30.2408 338.928 30.2385 338.776 30.1487C338.564 30.0211 338.302 29.9043 338.066 29.782C338.026 29.7605 337.962 29.7192 337.977 29.7156C338.101 29.6766 338.245 29.6465 338.374 29.6093C338.593 29.5472 338.594 29.4596 338.545 29.3754C338.506 29.3073 338.357 29.2802 338.174 29.2797C338.095 29.2795 337.996 29.2793 337.932 29.263C337.764 29.2233 337.71 29.173 337.794 29.1357C337.844 29.1143 337.933 29.0842 337.993 29.0879C339.052 29.1495 340.117 29.2093 341.171 29.2853C341.483 29.3075 341.627 29.2399 341.816 29.192C341.96 29.1548 342.094 29.1409 342.272 29.1681C342.44 29.1936 342.603 29.1797 342.708 29.1209C342.793 29.0728 342.644 29.0313 342.244 28.9838C342.169 28.9747 342.085 28.9691 342.031 28.9511C341.458 28.7565 341.458 28.7548 341.062 28.7287C340.676 28.7045 340.676 28.7028 340.474 28.5985C340.38 28.55 340.277 28.5014 340.188 28.4511C340.153 28.4314 340.094 28.3955 340.114 28.3848C340.224 28.3296 340.372 28.3175 340.546 28.3304C340.932 28.3618 341.388 28.3378 341.589 28.5082C341.668 28.5728 341.791 28.591 341.97 28.6022C343.762 28.7103 345.554 28.8256 347.351 28.9302C347.643 28.947 347.776 29.0135 347.889 29.0871C347.988 29.1482 348.097 29.1663 348.285 29.1775C348.473 29.1887 348.622 29.1945 348.731 29.1357C348.796 29.1001 348.742 29.0499 348.594 28.9994C348.381 28.9274 348.422 28.838 348.492 28.7541C348.542 28.6988 348.696 28.6598 348.859 28.6638C349.102 28.6716 349.334 28.6918 349.538 28.6208C349.657 28.5799 349.806 28.5517 349.94 28.5162C350.199 28.4435 350.457 28.369 350.818 28.4182C351.066 28.4009 351.24 28.337 351.438 28.2874C351.771 28.2059 351.801 28.1935 351.564 28.1052C351.297 28.0062 351.507 27.8779 351.359 27.781C351.201 27.6769 350.984 27.5851 350.792 27.4881C350.743 27.4629 350.698 27.4395 350.649 27.4144C350.763 27.3789 350.867 27.3344 351.001 27.3097C351.175 27.278 351.265 27.2388 351.256 27.1279C351.291 27.1119 351.275 27.153 351.236 27.1636C351.191 27.1742 351.082 27.165 351.028 27.1524C350.889 27.1181 350.82 27.0732 350.855 27.0357C350.875 27.0161 350.97 26.9913 351.029 26.9914C351.138 26.9917 351.232 27.0313 351.261 27.1279C351.815 27.2026 352.389 27.2398 352.963 27.2698C353.023 27.2736 353.097 27.238 353.167 27.2202C353.395 27.16 353.395 27.1618 354.064 27.1455C354.134 27.1439 354.228 27.1191 354.263 27.0942C354.407 26.9854 354.403 26.8655 354.474 26.7495C354.346 26.674 354.218 26.6004 354.085 26.5267C353.819 26.3776 353.473 26.2462 353.266 26.0829C353.312 25.9954 353.372 25.9079 353.155 25.8358C352.536 25.7449 352.541 25.7449 352.374 25.6586C351.895 25.4142 351.422 25.168 350.924 24.9271C350.791 24.8641 350.791 24.8302 351.029 24.8039C351.104 24.7969 351.183 24.7953 351.262 24.7991C351.51 24.8122 351.757 24.845 352 24.8385C352.243 24.8337 352.422 24.7555 352.62 24.7077C352.824 24.6581 353.027 24.6067 353.231 24.5553C353.464 24.5613 353.696 24.6119 353.93 24.532C354.108 24.4698 354.332 24.4257 354.535 24.3743C354.383 24.238 354.097 24.1335 353.875 24.0132C353.673 23.9036 353.668 23.9053 353.124 23.8199C352.867 23.78 352.779 23.5776 352.998 23.5191C353.261 23.4482 353.539 23.3827 353.807 23.3154C354.04 23.3214 354.277 23.3703 354.501 23.2903C354.674 23.2299 354.873 23.1893 355.16 23.2132C355.645 23.2538 356.14 23.2747 356.63 23.3081C356.799 23.3192 356.982 23.3125 357.057 23.2519C357.107 23.2091 356.964 23.1497 356.8 23.1368C356.553 23.1183 356.33 23.0963 356.207 23.0065C356.089 22.9168 355.871 22.8894 355.614 22.8763C355.545 22.8725 355.466 22.8509 355.431 22.8293C355.254 22.7252 355.056 22.6352 354.675 22.6379C354.517 22.6017 354.433 22.5568 354.483 22.514C354.513 22.4908 354.617 22.4607 354.677 22.4644C355.087 22.4833 355.498 22.5022 355.899 22.5354C356.087 22.5501 356.231 22.5541 356.35 22.5007C356.435 22.4651 356.391 22.4167 356.233 22.3645C356.095 22.3194 356.055 22.2674 356.066 22.2067C356.092 22.0654 356.241 22.0247 356.716 22.0348C357.058 22.0428 357.142 22.0197 357.218 21.8983C357.238 21.8697 357.288 21.8305 357.253 21.8107C357.041 21.6886 356.904 21.538 356.503 21.4798C356.345 21.4579 356.177 21.4575 356.078 21.4108C355.979 21.364 355.891 21.3101 355.787 21.2652C355.659 21.2112 355.57 21.1609 355.63 21.1271C355.73 21.0665 355.888 21.0615 356.071 21.0834C356.229 21.1017 356.398 21.1039 356.561 21.115C356.853 21.1354 357.091 21.0895 357.127 21.0109C357.223 20.8036 357.324 20.5982 357.41 20.3909C357.42 20.3659 357.396 20.3336 357.356 20.3121C357.218 20.2366 357.07 20.1647 356.927 20.091C356.76 20.0066 356.492 20.022 356.264 20.0054C355.942 19.9813 355.943 19.9831 355.513 19.8103C355.345 19.7419 355.053 19.7681 354.88 19.7068C354.826 19.687 354.742 19.6546 354.757 19.6368C354.777 19.6136 354.876 19.5959 354.95 19.5854C355.02 19.5748 355.104 19.5697 355.178 19.5752C356.079 19.6293 356.975 19.6869 357.876 19.7392C358.03 19.7485 358.199 19.7096 358.254 19.6543C358.309 19.6026 358.294 19.5399 358.305 19.4809C358.162 19.4072 357.999 19.3389 357.876 19.2599C357.782 19.1988 357.674 19.1717 357.485 19.1677C357.238 19.1617 356.995 19.1396 356.718 19.1229C356.205 18.8605 355.703 18.5856 355.15 18.3231C354.928 18.217 354.984 18.1098 354.94 17.997C354.897 17.8932 354.565 17.9085 354.342 17.8775C354.164 17.852 354.105 17.7947 354.175 17.7555C354.215 17.7323 354.304 17.7057 354.373 17.7059C354.537 17.7063 354.7 17.7228 354.863 17.7321C355.027 17.7415 355.215 17.7366 355.348 17.7673C355.477 17.7962 355.561 17.8573 355.644 17.9093C355.738 17.9668 355.862 17.9868 356.05 17.9908C356.292 17.995 356.535 18.0117 356.778 18.0248C357.046 17.9557 357.324 17.8884 357.582 17.8157C357.632 17.8015 357.642 17.7604 357.637 17.7336C357.628 17.6638 357.703 17.6211 357.866 17.5875C358.005 17.5592 358.12 17.5183 358.249 17.4829C358.15 17.4344 358.042 17.3876 357.963 17.3355C357.79 17.226 357.573 17.1468 357.197 17.1494C357.049 17.0793 356.931 16.9931 356.738 16.9444C356.555 16.8974 356.243 16.9431 356.105 16.8373C356.036 16.7852 355.933 16.726 355.799 16.7042C355.586 16.6697 355.309 16.6869 355.186 16.5864C355.112 16.529 355.004 16.4769 354.86 16.4622C354.697 16.4457 354.528 16.4417 354.41 16.4074C354.346 16.3894 354.277 16.3606 354.277 16.3356C354.277 16.3195 354.376 16.2947 354.446 16.2841C354.51 16.2717 354.594 16.263 354.669 16.2668C354.916 16.2781 355.159 16.2984 355.406 16.3097C355.476 16.3135 355.555 16.3011 355.629 16.2906C355.848 16.2625 355.833 16.2267 355.66 16.1619C355.488 16.0989 355.364 16.0181 355.221 15.9444C355.063 15.9315 354.865 15.9363 354.756 15.9021C354.573 15.8462 354.445 15.7654 354.298 15.6953C354.134 15.6841 353.966 15.6802 353.812 15.6601C353.748 15.6528 353.719 15.6134 353.664 15.59C353.566 15.545 353.482 15.4804 353.349 15.4586C353.131 15.4259 352.863 15.4378 352.735 15.3391C352.662 15.2817 352.548 15.2206 352.41 15.2167C352.023 15.2086 351.861 15.1098 351.664 15.0163C351.516 14.9462 351.198 14.9812 351.035 14.911C350.927 14.866 350.848 14.8104 350.739 14.7672C350.695 14.7492 350.601 14.74 350.527 14.7345C350.121 14.7066 349.71 14.686 349.304 14.6563C349.24 14.6508 349.18 14.6239 349.131 14.6023C349.028 14.5555 348.964 14.491 348.835 14.4602C348.707 14.4295 348.524 14.4291 348.365 14.4197C347.855 14.3917 347.815 14.3987 347.584 14.2461C347.397 14.1222 346.935 14.2087 346.783 14.0724C346.695 13.9935 346.532 13.9287 346.24 13.9191C345.829 13.9055 345.423 13.8706 345.012 13.8463C344.646 13.8239 344.651 13.8239 344.256 13.6566C344.078 13.5811 343.816 13.5912 343.583 13.5763C343.335 13.5614 343.108 13.5393 342.99 13.4496C342.872 13.3617 342.654 13.3325 342.401 13.3194C342.169 13.3063 341.906 13.3146 341.723 13.2426C341.279 13.0698 341.284 13.068 340.972 13.0494C340.482 13.0195 339.992 12.9897 339.502 12.9581C339.175 12.9376 338.834 12.9332 338.527 12.8931C338.304 12.864 338.206 12.7636 338.063 12.6935C337.657 12.6656 337.251 12.6378 336.845 12.6118C336.276 12.5746 335.702 12.541 335.127 12.5056C334.88 12.437 334.847 12.2867 334.431 12.2785C334.183 12.2743 333.941 12.2505 333.693 12.2356C333.283 12.2095 332.877 12.1763 332.466 12.1628C332.154 12.1531 332.1 12.0564 331.937 11.9951C331.883 11.9735 331.834 11.943 331.769 11.9375C331.126 11.8858 330.462 11.8735 329.834 11.7986C329.77 11.7913 329.71 11.7536 329.696 11.7267C329.686 11.7124 329.771 11.6858 329.825 11.6734C329.89 11.6592 329.974 11.6451 330.043 11.6489C332.088 11.7737 334.132 11.9004 336.177 12.0252C336.464 12.0438 336.464 12.042 337.161 12.2405C337.22 12.2567 337.289 12.2748 337.363 12.2803C337.69 12.3026 338.022 12.316 338.344 12.3436C338.606 12.3657 338.824 12.3447 339.013 12.2808C339.147 12.2346 339.286 12.2207 339.454 12.2247C339.642 12.2305 339.766 12.2505 339.875 12.299C340.018 12.3656 340.091 12.4516 340.393 12.4702C341.784 12.5506 343.175 12.6398 344.562 12.7255C344.755 12.7009 344.849 12.6636 344.8 12.6188C344.771 12.5919 344.712 12.556 344.652 12.5522C344.083 12.5133 343.509 12.4797 342.939 12.4425C342.86 12.4369 342.751 12.4402 342.707 12.4222C342.49 12.3412 342.412 12.2105 342 12.2005C341.763 12.1946 341.52 12.1671 341.293 12.1415C341.228 12.1342 341.169 12.0965 341.155 12.0697C341.15 12.0553 341.229 12.0287 341.289 12.0163C341.507 11.965 341.759 12.0282 341.978 11.993C342.052 11.9806 342.156 11.963 342.171 11.9416C342.181 11.9219 342.097 11.8895 342.038 11.8697C341.984 11.8517 341.91 11.8354 341.836 11.8299C341.182 11.7871 340.529 11.7426 339.875 11.7088C339.608 11.6956 339.42 11.6504 339.302 11.5679C339.213 11.5068 339.104 11.4744 338.936 11.465C337.793 11.396 336.649 11.3199 335.5 11.2563C335.213 11.2412 335.065 11.1819 334.947 11.1047C334.853 11.0436 334.745 11.0219 334.562 11.0107C332.923 10.9137 331.294 10.8059 329.656 10.7125C329.354 10.6956 329.265 10.6185 329.112 10.552C329.058 10.5286 329.023 10.4999 328.954 10.4854C328.885 10.4709 328.796 10.4725 328.712 10.4687C327.405 10.3886 326.098 10.3031 324.786 10.2283C324.479 10.2115 324.42 10.1219 324.262 10.0589C324.208 10.0391 324.159 10.0068 324.094 10.0013C323.114 9.93803 322.134 9.87839 321.154 9.81696C320.5 9.77601 319.847 9.73505 319.193 9.69588C318.872 9.67721 318.872 9.67541 318.437 9.50442C318.388 9.48463 318.319 9.4612 318.254 9.45568C316.373 9.33658 314.497 9.22289 312.616 9.10559C312.457 9.09626 312.344 9.05482 312.265 8.99381C312.187 8.93281 312.073 8.89139 311.919 8.88207C310.449 8.78903 308.979 8.69778 307.504 8.61009C307.236 8.59513 307.048 8.55174 306.93 8.47096C306.842 8.40993 306.733 8.37748 306.565 8.36812C305.094 8.27865 303.624 8.18381 302.149 8.09791C301.867 8.08112 301.728 8.01998 301.59 7.94809C301.541 7.92293 301.502 7.88169 301.442 7.87797C300.71 7.82609 299.982 7.77243 299.244 7.73664C298.937 7.72157 298.834 7.64619 298.711 7.57434C298.612 7.51687 298.499 7.49692 298.31 7.4893C297.899 7.47219 297.494 7.4408 297.093 7.40941C297.033 7.4039 296.959 7.36437 296.955 7.33931C296.945 7.29279 297.059 7.26087 297.248 7.24523C299.208 7.36631 301.173 7.48738 303.134 7.60846C303.456 7.62892 303.456 7.62893 303.89 7.79992C303.939 7.81972 304.009 7.84314 304.078 7.84868C305.959 7.96598 307.835 8.08148 309.716 8.19878C309.875 8.20812 309.988 8.24953 310.067 8.31054C310.146 8.37155 310.259 8.41296 310.413 8.42228C312.21 8.53401 314.007 8.64754 315.809 8.75391C316.076 8.76888 316.264 8.81046 316.382 8.89303C316.471 8.95406 316.58 8.98653 316.748 8.99589C318.466 9.10027 320.179 9.20999 321.902 9.31081C322.075 9.32018 322.204 9.26862 322.195 9.22031C322.19 9.19525 322.116 9.15395 322.057 9.15023C321.161 9.08901 320.269 9.026 319.368 8.97907C319.066 8.96402 318.978 8.8851 318.825 8.81854C318.776 8.79517 318.736 8.76467 318.672 8.75199C318.603 8.73751 318.514 8.73909 318.43 8.7353C316.306 8.6031 314.182 8.4691 312.053 8.34404C311.746 8.3254 311.688 8.2376 311.53 8.17461C311.475 8.15301 311.426 8.12071 311.362 8.11697C310.708 8.07244 310.055 8.03327 309.401 7.9941C308.258 7.92333 307.114 7.85255 305.966 7.78176C305.634 7.76127 305.634 7.76126 305.21 7.59209C305.16 7.57229 305.091 7.5471 305.027 7.54337C302.002 7.35529 298.977 7.16721 295.952 6.98092C295.794 6.97159 295.68 6.93017 295.602 6.86916C295.523 6.80994 295.409 6.76674 295.256 6.75563C291.167 6.50233 287.083 6.24904 282.993 5.99933C282.726 5.98257 282.538 5.94455 282.42 5.86019C282.337 5.79917 282.223 5.76671 282.055 5.75556C277.56 5.47802 273.064 5.20048 268.564 4.92114C265.54 4.73485 262.515 4.54498 259.49 4.36227C259.213 4.34549 259.065 4.28967 258.927 4.21599C258.882 4.19084 258.838 4.14959 258.779 4.14587C258.13 4.09956 257.482 4.05684 256.833 4.01411C256.63 4.0619 256.426 4.10792 256.223 4.15571C256.07 4.08737 255.922 4.01724 255.769 3.9489C254.789 3.89462 253.823 3.81176 252.833 3.78429C252.769 3.78234 252.699 3.81616 252.63 3.83388C252.168 3.94543 251.905 3.93584 251.615 3.78488C251.511 3.73097 251.422 3.68246 251.264 3.67312C250.774 3.63972 250.279 3.61704 249.794 3.57829C249.531 3.55797 249.313 3.57532 249.124 3.63925C248.99 3.68542 248.851 3.70477 248.688 3.69363C247.787 3.63776 246.891 3.58369 245.99 3.52424C245.926 3.5205 245.866 3.48994 245.817 3.46835C245.714 3.4216 245.625 3.37131 245.526 3.32277C245.392 3.35285 245.243 3.37574 245.134 3.41482C244.995 3.46099 244.866 3.46066 244.678 3.44768C241.084 3.22243 237.485 3.00253 233.891 2.7755C233.584 2.75686 233.449 2.83166 233.241 2.8705C233.172 2.88463 233.102 2.90234 233.028 2.90574C232.948 2.90912 232.864 2.89819 232.785 2.89263C230.087 2.72503 227.389 2.5592 224.691 2.3916C224.335 2.36926 224.335 2.36926 223.804 2.47886C223.739 2.49301 223.655 2.5089 223.585 2.50336C222.358 2.43059 221.13 2.35246 219.907 2.27792C219.749 2.26858 219.615 2.29687 219.471 2.33765C219.188 2.41744 219.168 2.4174 218.961 2.29885C218.862 2.24316 218.759 2.2089 218.595 2.1924C218.417 2.17408 218.273 2.17911 218.134 2.21097C217.936 2.25519 217.792 2.32995 217.49 2.30953C216.183 2.22226 214.871 2.14929 213.569 2.06024C213.272 2.03983 213.113 2.10025 212.914 2.14448C212.845 2.16041 212.78 2.18529 212.706 2.19048C212.631 2.19566 212.542 2.18291 212.463 2.17735C210.829 2.07675 209.191 1.97795 207.562 1.87021C207.255 1.84978 207.121 1.92635 206.912 1.96518C206.843 1.97932 206.763 2.00418 206.699 2.00045C205.719 1.94259 204.734 1.88113 203.753 1.8197C203.402 1.79737 203.402 1.79916 202.866 1.90695C202.802 1.9211 202.717 1.93521 202.648 1.93146C201.504 1.86247 200.356 1.79168 199.212 1.72091C198.861 1.69858 198.861 1.69859 197.844 1.7891C197.77 1.79607 197.691 1.80662 197.616 1.80286C196.31 1.72274 194.998 1.64439 193.691 1.5589C193.428 1.54216 193.21 1.55593 193.021 1.61986C192.887 1.66603 192.748 1.68538 192.585 1.67424C191.115 1.58299 189.639 1.49531 188.174 1.3987C187.892 1.38012 187.708 1.41901 187.51 1.47039C187.445 1.48812 187.381 1.513 187.306 1.51997C187.232 1.52695 187.148 1.51958 187.068 1.51402C185.598 1.42277 184.123 1.33687 182.658 1.23848C182.361 1.21807 182.202 1.27849 182.003 1.32272C181.933 1.33865 181.859 1.37066 181.8 1.36873C181.225 1.33691 180.651 1.30868 180.082 1.26257C179.775 1.23677 179.64 1.3187 179.432 1.35754C179.362 1.36989 179.283 1.39654 179.219 1.3928C177.991 1.32003 176.763 1.24369 175.54 1.16557C175.367 1.15441 175.238 1.17017 175.099 1.21634C174.915 1.27849 174.702 1.30301 174.435 1.28268C173.865 1.24014 173.291 1.21012 172.717 1.17473C172.38 1.15422 172.38 1.15423 171.349 1.24471C171.275 1.25168 171.195 1.26221 171.121 1.25845C170.141 1.19881 169.156 1.14094 168.181 1.07595C167.918 1.05742 167.7 1.07297 167.511 1.1369C167.377 1.18308 167.243 1.20243 167.075 1.19129C166.174 1.13542 165.278 1.07955 164.377 1.02368C164.05 1.0032 163.723 0.96841 163.396 0.967607C163.159 0.968812 162.985 1.05424 162.771 1.09664C162.712 1.10901 162.613 1.09448 162.534 1.09071C161.39 1.01993 160.241 0.954502 159.103 0.874795C158.806 0.854391 158.647 0.914811 158.448 0.959039C158.379 0.974966 158.304 1.00698 158.245 1.00505C157.834 0.984362 157.428 0.956533 157.017 0.932272C156.527 0.90245 156.032 0.879771 155.547 0.83923C155.151 0.806063 155.001 0.9613 154.684 0.965888C154.441 0.970658 154.194 0.939649 153.951 0.924744C153.461 0.894923 152.971 0.861528 152.481 0.835283C152.307 0.825915 152.174 0.796956 152.12 0.732433C152.11 0.719889 152.195 0.693278 152.249 0.677315C152.91 0.496496 152.91 0.496487 153.573 0.537466C153.984 0.563515 154.39 0.589557 154.801 0.61203C154.87 0.615777 154.949 0.601664 155.019 0.591103C155.217 0.561183 155.198 0.525366 155.03 0.460563C154.862 0.395761 154.734 0.316753 154.591 0.243069C154.388 0.289073 154.189 0.335073 153.986 0.381078C153.822 0.371734 153.659 0.360617 153.495 0.351272C152.679 0.302762 151.862 0.25246 151.045 0.207528C150.985 0.203805 150.911 0.239399 150.841 0.257115C150.643 0.308498 150.464 0.352762 150.177 0.332382C149.444 0.278713 148.707 0.239341 147.974 0.192826C147.652 0.172361 147.652 0.172363 147.086 0.281869C147.022 0.294231 146.938 0.308334 146.868 0.304587C146.131 0.261637 145.398 0.215128 144.66 0.17039C144.502 0.161058 144.348 0.183931 144.234 0.235521C144.189 0.256874 144.199 0.292664 144.008 0.58553C143.421 0.821978 143.02 0.795965 142.614 0.773505C142.441 0.764136 142.287 0.754807 142.174 0.718756C142.115 0.698935 142.04 0.670131 142.041 0.646879C142.041 0.628993 142.15 0.600638 142.219 0.597231C142.71 0.562663 143.175 0.638938 143.655 0.656215C143.878 0.663917 144.072 0.601789 144.112 0.499937C144.123 0.471344 144.138 0.440976 144.153 0.412395C144.168 0.383814 144.178 0.353434 144.193 0.324853C144.387 0.316384 144.5 0.348853 144.584 0.409872C144.653 0.460123 144.751 0.517601 144.885 0.544759C145.018 0.573704 145.202 0.568798 145.365 0.578142C145.523 0.587475 145.697 0.611149 145.845 0.598994C145.994 0.58505 146.113 0.533464 146.252 0.50161C146.317 0.485671 146.396 0.462622 146.461 0.466358C147.03 0.498162 147.594 0.529943 148.159 0.570678C148.456 0.592871 148.605 0.518127 148.794 0.472085C148.943 0.436678 149.091 0.445975 149.115 0.528311C149.178 0.725214 148.949 0.806925 148.444 0.768125C148.028 0.734908 147.652 0.728635 147.324 0.849457C147.279 0.865444 147.175 0.872341 147.111 0.868606C146.705 0.846145 146.304 0.818329 145.898 0.795868C145.824 0.792109 145.744 0.799057 145.675 0.806041C144.664 0.900144 144.664 0.901942 144.322 0.87964C144.159 0.868507 144 0.859174 144.018 0.587345C143.708 0.295039 143.213 0.274151 142.733 0.230045C142.421 0.20245 142.287 0.280824 142.083 0.321463C142.014 0.335601 141.939 0.364031 141.875 0.360296C140.81 0.298657 139.751 0.233446 138.692 0.164665C138.513 0.153496 138.385 0.163913 138.246 0.210076C138.067 0.268662 137.868 0.305743 137.586 0.283587C137.022 0.239275 136.447 0.211041 135.873 0.173859C135.581 0.155255 135.581 0.155237 134.991 0.264682C134.926 0.277044 134.842 0.291147 134.773 0.2874C134.198 0.255583 133.629 0.216635 133.06 0.183042C132.901 0.17371 132.757 0.198395 132.633 0.246383C132.509 0.294371 132.36 0.319044 132.206 0.309724C131.632 0.276118 131.063 0.238959 130.494 0.205366C130.424 0.201619 130.34 0.213931 130.275 0.226293C129.67 0.335702 129.67 0.335684 129.393 0.317117C128.987 0.289291 128.571 0.275763 128.17 0.239006C127.779 0.202274 127.575 0.305505 127.307 0.362083C126.574 0.319145 125.837 0.283359 125.109 0.231491C124.812 0.209298 124.653 0.267927 124.454 0.313944C124.385 0.329871 124.315 0.363688 124.251 0.361741C124.003 0.353978 123.761 0.333711 123.518 0.318807C123.276 0.303902 123.028 0.288987 122.785 0.274082C122.508 0.32527 122.323 0.446443 121.927 0.404332C121.69 0.378708 121.437 0.372722 121.195 0.357818C120.952 0.342913 120.705 0.327998 120.462 0.313094C120.299 0.303749 120.13 0.297962 119.972 0.281476C119.68 0.253929 119.535 0.341228 119.327 0.380066C119.258 0.392416 119.178 0.413671 119.114 0.409935C118.624 0.383691 118.129 0.361014 117.649 0.318697C117.277 0.28559 117.024 0.338634 116.761 0.413111C116.706 0.429074 116.612 0.437785 116.543 0.434038C115.969 0.402221 115.399 0.363252 114.83 0.329658C114.677 0.320338 114.528 0.34859 114.403 0.394789C114.274 0.442765 114.13 0.465682 113.972 0.45635C113.403 0.422757 112.828 0.385563 112.259 0.35197C112.19 0.348223 112.105 0.362327 112.041 0.376478C111.485 0.486009 111.485 0.487799 111.158 0.465533C111.079 0.459973 110.995 0.456175 110.916 0.450615C110.51 0.424577 110.089 0.414613 109.693 0.370714C109.238 0.321303 108.905 0.381303 108.582 0.482462C108.176 0.460002 107.76 0.446457 107.365 0.409713C107.068 0.382154 106.908 0.449728 106.71 0.493956C106.64 0.509883 106.566 0.541896 106.506 0.538172C105.932 0.506356 105.358 0.478126 104.794 0.432025C104.487 0.40623 104.352 0.486374 104.144 0.527C104.074 0.541139 104 0.56601 103.935 0.562275C103.609 0.547163 103.282 0.524887 102.955 0.50441C102.574 0.480222 102.574 0.482009 102.068 0.589872C101.83 0.641158 101.592 0.599434 101.359 0.586343C101.112 0.571426 100.879 0.560126 100.68 0.632972C100.556 0.679172 100.407 0.707425 100.254 0.699894C99.927 0.682994 99.5953 0.666089 99.2736 0.63847C99.0162 0.616375 98.7933 0.630128 98.6045 0.695844C98.4703 0.742019 98.3313 0.764944 98.168 0.753811C97.4353 0.709085 96.6977 0.662542 95.965 0.619604C95.9006 0.615869 95.8114 0.631754 95.7518 0.647705C95.6128 0.679559 95.4787 0.714995 95.3446 0.750438C95.0228 0.73355 94.691 0.7256 94.3743 0.699781C94.0377 0.673914 93.7306 0.664214 93.4672 0.761942C93.4125 0.783271 93.333 0.813466 93.2687 0.81152C93.0211 0.803757 92.7785 0.785281 92.5359 0.770376C92.2934 0.755471 92.0458 0.740556 91.8033 0.725652C91.5205 0.769673 91.3409 0.898012 90.945 0.855902C90.7075 0.830278 90.455 0.824292 90.2124 0.809387C89.9698 0.794482 89.7223 0.777779 89.4797 0.764663C89.4005 0.760891 89.3114 0.751724 89.242 0.758708C89.1677 0.76568 89.1031 0.790568 89.0385 0.808295C88.8399 0.859678 88.6561 0.911103 88.3741 0.880004C88.1365 0.85438 87.884 0.848392 87.6414 0.831699C87.3097 0.81121 87.3097 0.811213 86.7589 0.922545C86.5356 0.968501 86.2836 0.907071 86.0702 0.945897C85.9263 0.972373 85.8021 1.01677 85.6631 1.04684C85.6035 1.05921 85.5094 1.06434 85.4401 1.06059C85.1133 1.04369 84.7816 1.02679 84.4599 0.99917C84.1976 0.977062 83.9794 0.997988 83.7955 1.06193C83.6614 1.1081 83.5275 1.12746 83.3592 1.11631C82.5424 1.06423 81.7254 1.01928 80.9136 0.961839C80.6364 0.941483 80.4133 0.97135 80.2592 1.03536C79.9956 1.14561 79.6253 1.01413 79.352 1.10289C79.1831 1.15793 79.0141 1.22191 78.7073 1.19432C78.143 1.14643 77.5687 1.11997 76.9993 1.08638C76.7958 1.13417 76.5923 1.18197 76.3838 1.22975C76.0571 1.20928 75.7304 1.18879 75.4036 1.1701C75.1611 1.15519 74.9136 1.13849 74.6709 1.12537C74.5917 1.1216 74.5076 1.11424 74.4332 1.123C74.3588 1.13176 74.2991 1.15487 74.2296 1.17259C73.887 1.25939 73.8871 1.26119 73.3227 1.22403C73.0802 1.20734 72.8474 1.19603 72.6437 1.26708C72.4549 1.33279 72.2319 1.34476 71.9745 1.32445C71.4895 1.28749 70.9992 1.25946 70.5041 1.2332C70.3507 1.22388 70.2068 1.25393 70.0776 1.30012C69.8837 1.37298 69.646 1.36524 69.4035 1.34497C69.0818 1.31914 68.765 1.29333 68.4917 1.39282C68.437 1.41415 68.3525 1.44433 68.2931 1.4424C67.887 1.42709 67.476 1.41536 67.0801 1.3804C66.6841 1.34545 66.4899 1.45586 66.217 1.50885C65.8111 1.4846 65.4002 1.46034 64.9942 1.43609C64.915 1.43053 64.8211 1.41421 64.7516 1.42298C64.459 1.45983 64.2894 1.59355 63.8886 1.55143C63.656 1.52761 63.4035 1.51984 63.1608 1.51388C63.0964 1.51193 63.0119 1.54212 62.9671 1.56526C62.9422 1.57772 62.9667 1.61176 62.9962 1.62972C63.085 1.68002 63.1935 1.7268 63.2723 1.77887C63.2822 1.78605 63.1877 1.818 63.1331 1.83217C62.9991 1.86404 62.8456 1.85831 62.6674 1.84356C62.514 1.83066 62.3552 1.85531 62.2457 1.9087C62.201 1.93006 62.2156 1.96586 62.3086 2.08414C62.3078 2.17178 62.2041 2.13217 62.17 2.07485C62.1162 1.99244 62.2205 1.96587 62.4182 2.01107C62.5566 2.04361 62.6255 2.09028 62.5905 2.12776C62.5705 2.14738 62.4762 2.1722 62.3086 2.08414C61.8737 1.97576 61.5469 1.95529 61.2201 1.93481C61.136 1.92924 61.0371 1.9111 60.9776 1.92168C60.7642 1.96409 60.5656 2.01548 60.3571 2.06326C60.1194 2.05194 59.8968 2.02455 59.6634 2.09374C59.3356 2.19131 59.3207 2.18233 59.0039 2.16188C58.8406 2.15075 58.6772 2.14142 58.5138 2.13207C58.3504 2.12273 58.2215 2.14923 58.0775 2.19002C57.7845 2.27336 57.7597 2.2733 57.5675 2.15835C57.4543 2.08832 57.3752 2.06488 57.2313 2.09672C56.7548 2.20466 56.7498 2.21179 56.3439 2.1786C56.0073 2.15094 55.6904 2.14301 55.4417 2.24435C55.2727 2.31548 55.2184 2.29926 55.0853 2.22381C54.7305 2.0244 54.5671 2.02757 53.8971 2.16901C53.5844 2.23621 53.263 2.1621 52.9461 2.15238C52.6787 2.14456 52.4901 2.18702 52.4693 2.29965C52.4538 2.36937 52.4087 2.41935 52.2302 2.44217C52.1608 2.45094 52.0765 2.46325 52.0072 2.4595C51.5962 2.43703 51.1903 2.41099 50.7794 2.38494C50.5715 2.37191 50.4583 2.28758 50.499 2.17678C50.5446 2.05884 50.4658 2.01571 50.1689 1.981C49.9908 1.96088 49.847 1.96412 49.7031 1.99597C49.5442 2.03135 49.5885 2.06365 49.7266 2.12838C50.0571 2.28659 50.0166 2.38306 49.5896 2.49112C49.4406 2.52831 49.3215 2.56202 49.2864 2.61738C49.2663 2.64595 49.2857 2.68356 49.2409 2.70491C48.9971 2.82415 48.6596 2.90024 48.2827 2.95655C47.9215 2.90737 47.6731 2.98724 47.3951 3.05094C47.1767 3.10049 46.9196 3.05694 46.687 3.03849C46.4246 3.01817 46.2065 3.03193 46.0177 3.09765C45.8835 3.14382 45.7447 3.16494 45.5813 3.1556C45.2546 3.13512 44.9228 3.12179 44.6011 3.09238C44.324 3.06666 44.1156 3.10193 43.9417 3.16231C43.723 3.23869 43.4807 3.18621 43.2528 3.19638C42.9456 3.20815 42.7905 3.36695 42.3898 3.32304C42.1522 3.29742 41.9046 3.28787 41.657 3.28011C41.5927 3.27816 41.5132 3.30838 41.4585 3.32971C41.1951 3.42744 40.888 3.42131 40.5514 3.39187C40.3188 3.37162 40.0912 3.35318 39.8627 3.42059C39.4852 3.53414 39.0682 3.63328 38.671 3.73784C38.6157 3.81998 38.6545 3.91664 38.3718 3.96424C38.2229 3.98892 38.0839 4.02615 37.9696 4.06701C37.8304 4.11496 37.7016 4.12717 37.5234 4.11421C37.2017 4.08838 36.8648 4.08217 36.5481 4.0492C36.2561 4.01986 36.0724 4.07845 35.8935 4.13346C35.7495 4.17782 35.6155 4.19895 35.4424 4.16633C35.2644 4.13548 35.1355 4.15483 34.9914 4.20277C34.7877 4.26845 34.7729 4.26127 34.099 4.27929C34.0297 4.28091 33.9453 4.30752 33.9055 4.33067C33.8855 4.34315 33.9297 4.37905 33.9642 4.39702C34.0086 4.41859 34.0778 4.44379 34.1421 4.44931C34.8748 4.49761 35.6124 4.54056 36.345 4.58887C36.4193 4.59442 36.4984 4.60714 36.5527 4.62516C36.612 4.64498 36.686 4.67198 36.6858 4.69702C36.6856 4.7149 36.5865 4.73613 36.517 4.74848C36.2987 4.78908 36.0416 4.72585 35.8282 4.77183C35.6843 4.80189 35.5651 4.84451 35.4212 4.87278C35.3616 4.88515 35.2675 4.88314 35.1932 4.87938C34.9456 4.86625 34.7031 4.84777 34.4555 4.83643C34.3862 4.83447 34.3068 4.85217 34.2423 4.86632C33.7658 4.97247 33.7658 4.97246 33.3549 4.9482C33.1915 4.93886 33.0184 4.9116 32.8648 4.92196C32.7161 4.93232 32.5868 4.9803 32.4528 5.01038C32.1748 5.07409 31.9118 5.13604 31.8907 5.2755C31.8803 5.32913 31.7165 5.37523 31.553 5.3784C31.3944 5.38159 31.2262 5.36152 31.0628 5.35039C30.6767 5.32798 30.6767 5.32798 30.1754 5.43585C30.0364 5.46592 29.8878 5.46912 29.7097 5.4508C29.6404 5.44348 29.556 5.45043 29.4816 5.45919C29.2387 5.48542 29.2384 5.5194 29.3963 5.58418C29.6184 5.67952 29.5985 5.68842 28.9737 5.76737C28.7357 5.7972 28.5519 5.85398 28.3533 5.90358C28.0306 5.98328 28.0355 5.98327 28.2475 6.08932C28.2968 6.1127 28.3412 6.13785 28.3905 6.16301C28.5335 6.23312 28.6468 6.30852 28.9439 6.3164C29.2707 6.32436 29.5974 6.35379 29.9241 6.37427C30.2409 6.39472 30.3247 6.43784 30.2939 6.55939C30.2579 6.70597 30.1933 6.72191 29.6237 6.71872C29.4603 6.71832 29.3166 6.73227 29.1923 6.78026C29.2512 6.83764 29.3597 6.88262 29.5181 6.89375C29.9241 6.92157 30.3349 6.94584 30.7409 6.97009C31.0676 6.99056 31.3943 7.01103 31.7211 7.03151C31.924 7.04453 32.052 7.13786 31.9966 7.24147C31.9663 7.30042 31.9411 7.35938 31.9157 7.41834C31.8602 7.53625 31.7559 7.56641 31.4241 7.56023C31.3399 7.55824 31.2608 7.54372 31.1815 7.5471C30.8594 7.55883 30.7045 7.70691 30.3185 7.67555C29.9967 7.64972 29.6599 7.64353 29.3431 7.61056C29.0512 7.58122 28.8872 7.64523 28.6837 7.69302C28.6142 7.70895 28.5395 7.74273 28.4801 7.7408C28.0691 7.72011 27.6582 7.69944 27.2573 7.66448C27.0692 7.64971 26.9552 7.66015 26.8062 7.70271C26.4487 7.80558 26.4388 7.80019 25.9091 7.76669C25.523 7.7407 25.518 7.74426 25.0216 7.85215C24.8827 7.88222 24.7341 7.88185 24.5559 7.8671C24.3233 7.84864 24.0808 7.81943 23.8379 7.84566C23.7635 7.85264 23.6692 7.87388 23.6442 7.89707C23.6292 7.91313 23.6981 7.95265 23.7575 7.96531C24.1925 8.05939 24.7029 8.04455 25.1781 8.08328C25.3266 8.09437 25.4755 8.06075 25.5998 8.01276C25.729 7.96479 25.8678 7.94546 26.0362 7.95482C26.3629 7.97529 26.6946 7.98862 27.0163 8.01803C27.2935 8.04375 27.4871 8.00308 27.6808 7.94811C27.7453 7.93038 27.8199 7.89658 27.8842 7.89852C28.617 7.9361 29.3547 7.97369 30.0823 8.02556C30.3744 8.04774 30.5434 7.99092 30.7419 7.94312C30.8114 7.92719 30.881 7.89337 30.9454 7.89532C31.193 7.90308 31.4355 7.92335 31.6831 7.93827C32.5841 7.99414 33.4802 8.05 34.3812 8.10229C34.4406 8.10601 34.5152 8.06863 34.5847 8.0527C34.7187 8.02084 34.8578 7.99077 34.9967 7.9607C35.2443 7.97562 35.4868 7.9941 35.7344 8.00544C35.9126 8.01303 36.0709 8.03847 36.095 8.1065C36.1095 8.15125 35.9456 8.19198 35.7722 8.18798C35.6039 8.18399 35.4357 8.16211 35.2968 8.18502C34.6072 8.2978 34.6072 8.29959 34.1765 8.27528C33.8002 8.25289 33.8401 8.2351 33.5073 8.33265C33.3633 8.37523 33.2342 8.39996 33.0709 8.38883C32.6649 8.36279 32.2541 8.33674 31.8431 8.31427C31.7788 8.31053 31.6944 8.32822 31.6299 8.34237C31.1435 8.44849 31.1434 8.45206 30.7425 8.42425C30.2177 8.39077 30.198 8.38177 29.8453 8.49002C29.6019 8.56454 29.3795 8.51212 29.1468 8.50797C28.8786 8.57707 28.5858 8.63896 28.3424 8.71707C28.0542 8.80937 27.7523 8.79251 27.4256 8.76488C27.1831 8.74461 26.9454 8.73687 26.7466 8.80972C26.5577 8.87722 26.3299 8.88383 26.0725 8.86531C25.8398 8.84864 25.6023 8.81407 25.3592 8.85282C25.2947 8.86339 25.1955 8.88999 25.2003 8.9061C25.205 8.93115 25.2691 8.96708 25.3334 8.97797C25.7884 9.05242 26.2887 9.05186 26.7688 9.08702C26.8332 9.09254 26.9175 9.07307 26.982 9.05892C27.121 9.02707 27.2551 8.98984 27.3892 8.95619C27.6318 8.96751 27.8794 8.97169 28.117 8.99374C28.3001 9.01028 28.4389 9.00885 28.573 8.96625C28.6972 8.92721 28.8313 8.87924 28.98 8.86708C29.1287 8.85492 29.3018 8.88218 29.4652 8.89331C29.6285 8.90445 29.8168 8.89953 29.9453 8.92847C30.0738 8.9574 30.1526 9.0202 30.2363 9.07049C30.3299 9.12617 30.4586 9.14438 30.6467 9.15021C30.8201 9.156 30.9588 9.14918 31.088 9.09942C31.1427 9.07809 31.2172 9.06216 31.2916 9.04804C31.3611 9.03569 31.4405 9.0162 31.5048 9.01994C32.2425 9.06289 32.9752 9.10942 33.7128 9.15416C34.0791 9.17652 34.0742 9.17649 34.838 9.07284C34.9074 9.06406 34.9917 9.05176 35.061 9.0555C35.4719 9.07797 35.8778 9.10402 36.2887 9.13007C36.7046 9.15613 36.6996 9.15254 37.409 9.04159C37.538 9.02045 37.7259 9.04953 37.8795 9.04633C38.2015 9.03818 38.3614 8.88833 38.7376 8.91787C39.0593 8.9437 39.3962 8.94989 39.7179 8.98288C40.0098 9.01221 40.1787 8.95003 40.3773 8.90222C40.4468 8.8863 40.5215 8.8507 40.5809 8.85443C41.3186 8.89559 42.0512 8.9421 43.0319 8.94988C43.2746 8.95047 43.1653 8.98777 43.0067 8.9999C42.7786 9.01902 42.7046 8.98127 42.8291 8.91003C42.9187 8.86017 43.0478 8.83543 43.1517 8.84821C43.2062 8.8555 43.2752 8.88966 43.0319 8.94988C42.7737 9.01721 42.7882 9.0548 42.7434 9.07615C42.634 9.12776 42.4802 9.14884 42.3218 9.1413C42.0742 9.12817 41.8317 9.10969 41.5841 9.09835C41.5148 9.0946 41.4305 9.10692 41.366 9.12107C40.8201 9.23062 40.8151 9.23777 40.2359 9.19343C40.0528 9.18045 39.9191 9.18013 39.7751 9.21376C39.5766 9.25977 39.4322 9.33811 39.1303 9.31233C38.7294 9.27736 38.3184 9.25669 37.9075 9.236C37.8432 9.23227 37.7736 9.26429 37.6991 9.27842C37.4956 9.32085 37.3463 9.40097 37.0444 9.36624C36.8119 9.33884 36.5593 9.33105 36.3117 9.32508C36.2474 9.32313 36.1481 9.35151 36.1182 9.37469C36.0583 9.41568 36.1321 9.46417 36.3002 9.49856C36.3694 9.51304 36.4636 9.50969 36.5428 9.51525C36.8695 9.53573 37.1962 9.55798 37.523 9.57488C37.6963 9.58425 37.8595 9.61149 37.8787 9.67772C37.8931 9.72247 37.7145 9.76137 37.5461 9.75738C37.2985 9.75141 37.051 9.7365 36.8135 9.71266C36.3928 9.67228 36.0261 9.6821 35.6833 9.79395C35.4399 9.87205 35.455 9.84348 35.1953 10.0754C35.1304 10.1342 34.9372 10.1391 34.7688 10.1351C34.3627 10.1252 34.1743 10.1516 34.2084 10.2071C34.2524 10.2752 34.3958 10.297 34.579 10.3064C34.9058 10.3215 35.2325 10.3455 35.5592 10.366C35.6384 10.3716 35.7275 10.3825 35.8018 10.3791C35.8761 10.3757 35.9456 10.3544 36.0102 10.3385C36.1492 10.3049 36.2686 10.2533 36.4173 10.2411C36.566 10.229 36.7391 10.2562 36.9025 10.2673C37.0659 10.2767 37.2389 10.3039 37.3877 10.2918C37.5364 10.2796 37.6607 10.2263 37.7948 10.1944C37.8593 10.1785 37.9387 10.1536 38.0031 10.1556C38.3299 10.1707 38.6566 10.1948 38.9833 10.2134C39.3843 10.2377 39.3843 10.2377 39.8708 10.128C40.0098 10.0961 40.1534 10.0983 40.3365 10.113C40.7325 10.1426 40.7375 10.1373 41.4616 10.0353C41.5311 10.0247 41.6155 10.0124 41.6848 10.018C42.4225 10.0609 43.1551 10.1074 43.8878 10.1521C44.5165 10.1912 44.5165 10.1913 44.8616 10.371C45.1179 10.504 45.1229 10.504 44.8697 10.5642C44.6662 10.6137 44.4823 10.6866 44.2591 10.7129C44.0508 10.7374 43.7939 10.6563 43.5654 10.738C43.4511 10.7789 43.3021 10.8232 43.1584 10.83C42.9305 10.8384 42.6882 10.786 42.4695 10.8641C42.3602 10.9032 42.1963 10.9439 42.0576 10.9454C41.8149 10.9484 41.5675 10.9191 41.3249 10.906C41.2506 10.9023 41.1664 10.9021 41.097 10.9108C41.0226 10.9214 40.9581 10.9427 40.8935 10.9604C40.6949 11.0207 40.4815 11.0488 40.2243 11.0178C39.8037 10.9667 39.427 10.9908 39.0991 11.1045C39.0543 11.1204 38.9454 11.122 38.8761 11.1147C38.6979 11.0963 38.5444 11.0942 38.4104 11.1278C38.3557 11.142 38.2763 11.1668 38.286 11.1829C38.3006 11.2098 38.3598 11.2457 38.4241 11.2548C38.8891 11.3168 39.3893 11.3252 39.8695 11.3586C39.9338 11.3623 40.0132 11.3392 40.0778 11.3233C40.2168 11.2914 40.3362 11.2381 40.4849 11.2259C40.6336 11.2138 40.8067 11.2374 40.9701 11.2468C41.1335 11.2561 41.3066 11.2834 41.4553 11.273C41.604 11.2609 41.7431 11.2165 41.8624 11.1774C42.0015 11.133 42.1352 11.128 42.3183 11.1464C42.5559 11.1702 42.8035 11.1744 43.0461 11.1875C43.1801 11.1538 43.3142 11.1166 43.4532 11.0847C43.5178 11.0688 43.5971 11.0493 43.6665 11.0513C43.9933 11.0664 44.3201 11.0887 44.6468 11.1091C44.9736 11.1296 44.9735 11.1296 45.5292 11.0201C45.5937 11.0077 45.6782 10.9936 45.7475 10.9974C46.1584 11.0199 46.5643 11.0477 46.9752 11.0701C47.1337 11.0795 47.2775 11.0548 47.4067 11.0068C47.5309 10.9588 47.6798 10.9324 47.8333 10.9417C48.4868 10.9808 49.1403 11.0182 49.7937 11.0645C50.0561 11.0831 50.2792 11.0675 50.4581 11.0036C50.6668 10.9308 50.8993 10.9492 51.1419 10.9641C51.6914 11.0012 51.6964 10.9995 52.0489 10.9091C52.1184 10.8914 52.188 10.8576 52.2524 10.8595C52.8218 10.8877 53.3961 10.9142 53.9604 10.9585C54.2574 10.9825 54.4165 10.9203 54.615 10.8743C54.6845 10.8583 54.7591 10.8245 54.8185 10.8283C55.2294 10.8489 55.6405 10.8678 56.0414 10.9046C56.4422 10.9414 56.5973 10.7754 56.8994 10.7779C57.3106 10.7807 57.7163 10.8229 58.1223 10.8489C58.449 10.8694 58.7757 10.8898 59.1024 10.9103C59.4292 10.9308 59.7559 10.9477 60.0826 10.9717C60.2559 10.9847 60.3848 10.9689 60.5288 10.9245C60.7126 10.866 60.931 10.82 61.1296 10.7669C61.4324 10.6907 61.4325 10.6907 61.7988 10.713C61.878 10.7186 61.9622 10.7224 62.0414 10.7279C62.6404 10.7688 62.6404 10.7652 63.4042 10.6544C63.439 10.6491 63.528 10.669 63.5625 10.6834C63.6661 10.7302 63.7597 10.7805 63.8534 10.829C63.9874 10.8007 64.151 10.785 64.2405 10.7441C64.4942 10.6284 64.889 10.7886 65.1477 10.6748C65.2422 10.6321 65.406 10.5949 65.5547 10.5845C65.7083 10.5742 65.8814 10.5996 66.0399 10.6108C66.4507 10.6386 66.4508 10.6368 66.801 10.7969C66.9786 10.876 67.2362 10.8623 67.4689 10.8808C67.7114 10.901 67.9442 10.9124 68.1479 10.8395C68.3318 10.7738 68.5547 10.7582 68.8171 10.7804C69.1388 10.808 69.4705 10.8249 69.7973 10.8418C69.8666 10.8455 69.951 10.8368 70.0204 10.8262C70.7792 10.7226 70.7792 10.7208 71.1456 10.7449C71.3089 10.7561 71.4773 10.76 71.6356 10.7765C71.9029 10.8058 72.1062 10.7687 72.2999 10.712C72.3645 10.6943 72.4391 10.6605 72.5035 10.6624C72.8303 10.6722 73.1521 10.689 73.474 10.7059C73.7215 10.7191 73.9691 10.7268 74.2066 10.7525C74.6025 10.7946 74.7967 10.6788 75.0696 10.6258C75.4756 10.65 75.8866 10.6671 76.2924 10.7003C76.4805 10.7151 76.6044 10.71 76.7484 10.6675C76.9321 10.6143 77.1012 10.5539 77.3981 10.5814C77.794 10.6182 78.21 10.6317 78.6159 10.6542C78.8889 10.5994 79.088 10.4872 79.4789 10.5293C79.7165 10.5549 79.969 10.5609 80.2116 10.5758C80.5383 10.5963 80.8651 10.615 81.1918 10.6372C81.5433 10.6596 81.5384 10.6542 82.0793 10.55C82.3919 10.4882 82.7133 10.5587 83.0302 10.5702C83.2778 10.5798 83.4008 10.6623 83.3404 10.7677C83.28 10.8731 83.413 10.9557 83.6408 10.9706C84.2101 11.006 84.7843 11.0431 85.3536 11.0749C85.423 11.0787 85.5072 11.0664 85.5717 11.054C86.182 10.9428 86.182 10.9446 86.4543 10.9614C86.8602 10.9892 87.2762 11.0045 87.6771 11.0395C87.9542 11.0634 88.1577 11.0264 88.3366 10.966C88.4757 10.9198 88.6045 10.9094 88.7827 10.9206C90.7431 11.0452 92.7036 11.161 94.659 11.2892C94.9511 11.3078 95.1199 11.2563 95.3185 11.2085C95.388 11.1926 95.4527 11.1588 95.5221 11.1589C95.6855 11.1593 95.8488 11.1758 96.0122 11.187C96.7449 11.2317 97.4775 11.2854 98.2152 11.3194C98.5271 11.3344 98.6106 11.4169 98.7437 11.4852C98.8473 11.5373 98.9659 11.5591 99.1491 11.5667C99.3273 11.5743 99.4563 11.5657 99.5954 11.5195C99.7743 11.4591 99.9776 11.4221 100.255 11.4478C100.576 11.4772 100.903 11.4905 101.235 11.511C101.403 11.5204 101.532 11.5529 101.586 11.6174C101.596 11.6282 101.491 11.6547 101.432 11.6707C101.233 11.7239 101.044 11.786 100.821 11.823C100.593 11.86 100.346 11.8165 100.108 11.8051C100.024 11.8014 99.9446 11.7904 99.8654 11.792C99.791 11.7936 99.7017 11.8024 99.6471 11.8183C99.3888 11.8982 99.1159 11.953 98.7597 11.9038C98.4524 11.9263 98.2925 12.0744 97.9015 12.034C97.664 12.0102 97.4164 11.9989 97.1688 11.9893C97.1045 11.9874 97.0349 12.0194 96.9654 12.0353C96.7668 12.0796 96.6077 12.1507 96.3107 12.1196C95.994 12.0866 95.6573 12.0804 95.3355 12.0546C95.1573 12.0398 95.0285 12.052 94.8894 12.0982C94.7105 12.1568 94.507 12.201 94.2299 12.1717C93.9923 12.1461 93.7398 12.1401 93.4972 12.1234C93.1804 12.1029 93.1804 12.1047 92.6147 12.2142C92.5502 12.2266 92.4659 12.2407 92.3966 12.2369C91.9857 12.2145 91.5798 12.1866 91.1688 12.1642C91.0104 12.1548 90.8566 12.1777 90.7471 12.2293C90.7024 12.2507 90.717 12.2865 90.7018 12.3169C91.5187 12.3672 92.3356 12.4103 93.1473 12.4713C93.4542 12.4953 93.5936 12.4223 93.7971 12.3817C93.8666 12.3676 93.9411 12.3373 94.0055 12.3411C94.5798 12.3729 95.1491 12.4065 95.7183 12.4472C95.8965 12.4602 96.0303 12.4533 96.1645 12.4018C96.5075 12.2649 96.9229 12.3411 97.3091 12.3617C97.6062 12.3767 97.6998 12.4324 97.664 12.5504C97.6182 12.6898 97.4395 12.7323 96.984 12.7061C96.8207 12.6968 96.6573 12.6838 96.4939 12.6763C96.3355 12.6687 96.1916 12.6916 96.0624 12.7396C95.9381 12.7876 95.7893 12.8123 95.6358 12.8047C95.3091 12.7878 94.9774 12.7709 94.6606 12.7433C94.3983 12.7212 94.1801 12.7386 93.9963 12.8043C93.7925 12.8771 93.5548 12.8604 93.3173 12.8438C92.7628 12.8066 92.7579 12.8084 92.4104 12.897C92.3409 12.9147 92.2711 12.9485 92.2068 12.9466C91.6374 12.9184 91.0631 12.8937 90.5037 12.8494C90.2117 12.8272 90.0427 12.884 89.8491 12.9301C89.7796 12.946 89.71 12.9816 89.6456 12.9778C89.2347 12.9572 88.8238 12.9365 88.4229 12.9015C88.2348 12.8849 88.1208 12.8954 87.9669 12.9379C87.5994 13.0426 87.5895 13.039 87.0697 13.0037C86.9113 12.9926 86.7381 12.9725 86.5894 12.9864C86.4407 13.0004 86.3213 13.052 86.1823 13.0838C86.1178 13.098 86.0384 13.1174 85.9691 13.1137C85.6423 13.0986 85.3156 13.0763 84.9889 13.0558C84.6819 13.0354 84.6819 13.0372 84.1063 13.1467C83.8731 13.1926 83.6306 13.1527 83.398 13.1378C83.1455 13.1211 82.9177 13.1205 82.7239 13.1898C82.5301 13.2591 82.2973 13.2549 82.0497 13.24C81.8171 13.2251 81.5797 13.1852 81.3415 13.2329C80.7957 13.3425 80.7956 13.3442 80.459 13.322C79.9689 13.2903 79.4838 13.2605 78.9887 13.2325C78.9243 13.2288 78.84 13.25 78.7754 13.2642C78.6365 13.296 78.517 13.3494 78.3683 13.3615C78.2196 13.3755 78.0464 13.3536 77.8881 13.3425C77.3782 13.3072 77.3436 13.2946 77.0008 13.4118C76.7126 13.5077 76.3572 13.3673 76.0887 13.4776C75.9346 13.5398 75.7262 13.5894 75.4392 13.5582C75.2016 13.5326 74.9541 13.5249 74.7065 13.5099C74.3154 13.4857 74.3154 13.4875 73.8191 13.5936C73.7546 13.6078 73.6702 13.6255 73.6059 13.6217C73.2791 13.6066 72.9472 13.5933 72.6305 13.5603C72.2594 13.5218 72.0211 13.5892 71.7431 13.6547C71.5247 13.7061 71.2675 13.6625 71.0348 13.644C70.7823 13.6255 70.5545 13.6303 70.3657 13.6996C70.1669 13.7707 69.9341 13.7612 69.6866 13.7462C69.4539 13.7331 69.2165 13.6914 68.9783 13.7409C68.4671 13.8506 68.4671 13.8506 68.0958 13.8282C67.7691 13.8077 67.4424 13.7855 67.1156 13.7703C67.0512 13.7666 66.9718 13.7897 66.9073 13.8056C66.7683 13.8374 66.6489 13.8908 66.5002 13.903C66.3515 13.9151 66.1783 13.8915 66.0149 13.8821C65.8516 13.8728 65.6785 13.8455 65.5298 13.8559C65.3811 13.8662 65.242 13.9106 65.1227 13.9497C64.9836 13.9958 64.8548 14.0009 64.6667 13.9825C64.4292 13.9587 64.1816 13.9527 63.939 13.9396C63.805 13.9733 63.6659 14.0069 63.5368 14.0442C63.4027 14.0832 63.2591 14.0792 63.076 14.0663C62.4671 14.0219 62.4621 14.0272 61.9509 14.1369C61.7177 14.1864 61.4752 14.1446 61.2425 14.1315C60.995 14.1166 60.7624 14.1089 60.5685 14.18C60.3797 14.2475 60.1468 14.2558 59.8993 14.2338C59.7409 14.2191 59.5726 14.2097 59.4092 14.204C59.3349 14.202 59.2457 14.2089 59.1911 14.2231C58.9279 14.2976 58.6697 14.3649 58.3085 14.3157C57.9914 14.3293 57.8316 14.4755 57.4504 14.446C57.1287 14.4201 56.7919 14.4139 56.4752 14.381C56.1832 14.3516 55.9747 14.4012 55.8256 14.4634C55.5571 14.5737 55.182 14.4225 54.9135 14.531C54.7594 14.5932 54.5609 14.6428 54.2639 14.6152C53.9373 14.5858 53.8329 14.6231 53.7377 14.7355C53.6827 14.7998 53.692 14.8517 53.7907 14.902C53.8892 14.9541 53.9983 14.9455 54.1573 14.8868C54.3412 14.8211 54.5593 14.8091 54.8217 14.8241C55.0791 14.839 55.2385 14.7464 55.4518 14.7112C55.6651 14.6741 55.9171 14.7373 56.1404 14.6896C56.6665 14.5782 56.6665 14.5782 57.023 14.6005C57.2655 14.6154 57.5181 14.6232 57.7556 14.6488C58.0377 14.6799 58.2215 14.6249 58.4151 14.5753C58.4846 14.5576 58.5544 14.5238 58.6138 14.5257C59.1832 14.554 59.7575 14.5804 60.3217 14.6265C60.6187 14.6505 60.7777 14.5865 60.9762 14.5423C61.0458 14.5263 61.1204 14.4943 61.1798 14.4981C61.67 14.5243 62.1551 14.5577 62.6452 14.5893C62.7388 14.6378 62.8425 14.6846 62.9311 14.7367C63.0248 14.7905 63.1533 14.8141 63.3415 14.8128C63.6535 14.8136 63.96 14.8894 64.273 14.7954C64.5958 14.6996 64.6204 14.705 64.9323 14.7291C65.3283 14.7604 65.7494 14.7543 66.1203 14.825C66.1845 14.8377 66.2536 14.8718 66.2534 14.8968C66.2582 14.9129 66.1539 14.936 66.0894 14.9501C65.871 14.9925 65.6191 14.9293 65.4007 14.9735C65.2568 15.0017 65.1375 15.0443 64.9936 15.0744C64.934 15.0868 64.8449 15.0848 64.7657 15.0828C64.6815 15.0808 64.6024 15.0681 64.5231 15.0697C64.4488 15.0713 64.3693 15.0818 64.3097 15.0978C64.0367 15.1651 63.7489 15.227 63.5055 15.3069C63.267 15.385 63.0446 15.3308 62.8069 15.3266C61.8547 15.4495 61.8546 15.4513 61.216 15.4103C61.0576 15.401 60.8942 15.3899 60.7308 15.3913C60.6614 15.3911 60.5968 15.4231 60.5273 15.4408C60.3287 15.494 60.1399 15.5418 59.8628 15.5125C59.6253 15.4869 59.3727 15.4809 59.1302 15.4642C58.8035 15.4438 58.8034 15.4438 58.2476 15.5551C58.1087 15.5834 57.9602 15.5794 57.782 15.5647C57.6285 15.5518 57.4699 15.5782 57.3604 15.6298C57.3156 15.6512 57.3301 15.687 57.315 15.7174C57.8051 15.7472 58.3002 15.7681 58.7753 15.8122C59.0822 15.8397 59.2216 15.7632 59.4251 15.7225C59.4945 15.7084 59.5691 15.6782 59.6334 15.6819C60.1186 15.7099 60.6037 15.7415 61.0888 15.7785C61.1482 15.7822 61.2222 15.8235 61.2269 15.8486C61.2364 15.8951 61.1122 15.9395 60.9339 15.9373C60.6962 15.9349 60.4636 15.9039 60.2499 15.9767C60.071 16.0407 59.8479 16.0688 59.5857 16.0395C59.4273 16.023 59.2588 16.0226 59.1004 16.0079C58.6798 15.964 58.2984 15.972 57.9803 16.0928C57.7373 16.1244 57.4997 16.0934 57.2671 16.0768C57.0938 16.0638 56.9256 16.0509 56.8014 16.0845C56.5382 16.1554 56.28 16.2264 55.9189 16.1772C55.5271 16.2263 55.2289 16.3311 54.9012 16.4161C54.7473 16.4569 54.6283 16.4799 54.4502 16.4526C54.376 16.4417 54.2868 16.4415 54.2076 16.4359C54.0443 16.4266 53.8712 16.3993 53.7224 16.4097C53.5737 16.4218 53.4494 16.4734 53.3154 16.5053C53.2508 16.5212 53.1763 16.5478 53.112 16.5459C52.8644 16.5363 52.6219 16.5179 52.3793 16.503C52.1367 16.4898 51.8941 16.4767 51.6515 16.4636C51.448 16.5096 51.2396 16.5556 51.036 16.6016C50.7093 16.5811 50.3825 16.5607 50.0607 16.542C49.6993 16.5196 49.6994 16.5214 49.1783 16.631C48.945 16.6805 48.6976 16.6477 48.4749 16.6239C48.1037 16.5855 47.8554 16.6528 47.5923 16.7237C47.5376 16.7379 47.4385 16.7466 47.3742 16.7393C47.1169 16.7136 46.8939 16.7327 46.705 16.7985C46.5709 16.8446 46.4369 16.8658 46.2735 16.8564C45.7042 16.8211 45.1349 16.7839 44.5656 16.7521C44.4963 16.7483 44.4169 16.7642 44.3524 16.7784C43.8462 16.8862 43.8411 16.8916 43.4699 16.8621C43.1383 16.8362 42.8312 16.8247 42.5678 16.9224C42.5131 16.9438 42.4287 16.974 42.3693 16.972C41.9633 16.9532 41.5522 16.9325 41.1513 16.9011C40.9682 16.8863 40.8394 16.8914 40.6953 16.9322C40.5116 16.9836 40.3476 17.0458 40.0456 17.0218C39.2091 16.9536 39.2041 16.9643 38.2123 17.0852C38.1429 17.094 38.0489 17.0795 37.9697 17.0721C37.8015 17.0538 37.6775 17.0786 37.5285 17.1194C37.1958 17.2115 37.1859 17.2062 36.8691 17.1857C36.6265 17.169 36.3739 17.1648 36.1364 17.1374C35.7702 17.0971 35.5269 17.1663 35.2539 17.2318C35.0354 17.2832 34.7833 17.2396 34.5506 17.2229C34.2982 17.2044 34.0702 17.2092 33.8813 17.2767C33.7521 17.3229 33.6133 17.3476 33.4499 17.3383C32.8806 17.3047 32.3112 17.2675 31.7419 17.2339C31.6726 17.2302 31.5883 17.2443 31.5238 17.2566C30.9581 17.3661 30.958 17.3715 30.3987 17.329C30.2205 17.316 30.072 17.3121 29.9379 17.3493C29.8087 17.3848 29.6697 17.4184 29.5357 17.4521C29.2931 17.439 29.0455 17.4348 28.8079 17.4127C28.6248 17.3962 28.496 17.403 28.352 17.4402C28.1633 17.4881 28.004 17.5717 27.7072 17.5299C27.5538 17.5098 27.3755 17.5148 27.2221 17.4965C27.0391 17.4728 26.915 17.4868 26.7709 17.5329C26.5921 17.5879 26.4084 17.6447 26.1214 17.6154C25.8047 17.5824 25.4679 17.5762 25.1462 17.5504C24.968 17.5357 24.844 17.5497 24.6999 17.5958C24.521 17.6544 24.3176 17.6915 24.0404 17.6675C23.4762 17.6214 23.4712 17.6304 22.9204 17.7417C22.7815 17.77 22.6328 17.766 22.4546 17.7513C22.3012 17.7384 22.1425 17.7648 22.0331 17.8164C21.9285 17.8734 21.9381 17.9092 21.9279 17.9396ZM66.2133 1.91666C66.3767 1.926 66.5401 1.93713 66.7793 1.78211C66.7944 1.75531 66.7847 1.7231 66.8196 1.69994C66.8993 1.65184 67.0234 1.61816 67.172 1.61316C67.4396 1.60666 67.7611 1.66825 67.7557 1.71475C67.7504 1.75408 67.6659 1.78785 67.5021 1.81965C67.4326 1.832 67.3779 1.85333 67.3134 1.86748C67.1248 1.90815 66.9755 1.98829 66.7034 1.94648C66.7539 1.83571 66.7287 1.8911 66.7034 1.94648C66.7276 2.01451 66.6528 2.06262 66.4743 2.08186C66.4248 2.0871 66.3505 2.08333 66.3109 2.07251C66.1577 2.03278 66.1335 1.97907 66.2487 1.83805C66.2683 1.86135 66.253 1.90244 66.2084 1.91306C66.1637 1.92368 66.0548 1.91449 66.0005 1.90183C65.8621 1.86751 65.7931 1.82262 65.8281 1.78514C65.8481 1.76552 65.9425 1.74071 66.002 1.74085C66.106 1.74111 66.1997 1.78069 66.2133 1.91666ZM25.9722 22.5606C26.3335 22.5955 26.7496 22.584 27.1106 22.6546C27.1748 22.6673 27.2389 22.6997 27.2437 22.7247C27.2485 22.7408 27.1492 22.7638 27.0896 22.7762C26.9556 22.8045 26.8071 22.7952 26.6339 22.7858C26.3715 22.7726 26.2171 22.8545 26.0137 22.8952C25.9492 22.9075 25.8649 22.9163 25.7956 22.9125C25.3946 22.8901 24.9986 22.8659 24.5976 22.8398C24.5283 22.8343 24.4541 22.8216 24.3948 22.8054C24.1971 22.753 24.2172 22.7191 24.4108 22.6802C24.6241 22.6378 24.7932 22.5667 25.0115 22.5332C25.3239 22.4857 25.6405 22.5508 25.9722 22.5606ZM54.0896 23.9354C54.3322 23.9503 54.5699 23.9651 54.8125 23.9801C54.8917 23.9856 54.9759 23.9876 55.0501 23.9949C55.2035 24.0078 55.3171 24.0457 55.3909 24.1049C55.2765 24.1511 55.1375 24.1776 54.984 24.1718C54.7414 24.1605 54.5039 24.1367 54.2612 24.1307C53.9988 24.1229 53.8445 24.203 53.641 24.2437C53.5765 24.256 53.4973 24.2576 53.423 24.2592C53.0564 24.2655 52.8343 24.1719 52.9048 24.0415C52.9553 23.9397 53.1441 23.8794 53.3718 23.8925C53.6094 23.9056 53.852 23.9205 54.0896 23.9354ZM24.3023 19.9129C24.2431 19.8824 24.1789 19.8607 24.1494 19.8338C24.0611 19.7424 24.0965 19.6745 24.2606 19.6034C24.4596 19.5162 24.7016 19.5758 24.9244 19.5853C24.9789 19.5873 25.038 19.625 25.0676 19.6483C25.0872 19.6644 25.0869 19.6984 25.0571 19.7073C24.8137 19.7782 24.5555 19.8438 24.3023 19.9129ZM67.3197 14.7349C67.5574 14.7498 67.8 14.7611 68.0375 14.7814C68.0969 14.7869 68.1511 14.821 68.1856 14.8444C68.2496 14.8874 68.1797 14.9463 67.9766 14.9512C67.7437 14.9577 67.5013 14.9267 67.2588 14.9118C66.9518 14.8932 66.7692 14.8266 66.8836 14.7696C66.9931 14.7144 67.1417 14.7041 67.3197 14.7349ZM328.088 11.5529C327.929 11.5435 327.766 11.536 327.607 11.5231C327.459 11.5102 327.345 11.4705 327.272 11.4113C327.396 11.3651 327.535 11.3404 327.688 11.3462C327.931 11.3575 328.168 11.3724 328.406 11.3909C328.555 11.402 328.698 11.4417 328.732 11.5026C328.766 11.5492 328.434 11.5752 328.088 11.5529ZM88.3044 10.6887C88.2398 10.7046 88.1752 10.7367 88.1108 10.7365C87.9523 10.7361 87.7888 10.725 87.6404 10.7067C87.5761 10.6994 87.5269 10.6671 87.4975 10.642C87.4778 10.6258 87.4829 10.5972 87.5128 10.583C87.6572 10.4975 88.2316 10.5293 88.3247 10.6279C88.3345 10.6458 88.3095 10.669 88.3044 10.6887ZM104.021 0.932722C104.006 0.961303 104.001 0.989905 103.981 1.01847C103.941 1.07203 103.831 1.11112 103.673 1.13756C103.549 1.09254 103.485 1.04231 103.491 0.988668C103.496 0.960063 103.511 0.931464 103.531 0.902895C103.571 0.849334 103.681 0.810267 103.839 0.783827C103.963 0.827057 104.022 0.877276 104.021 0.932722ZM12.8166 24.1452C12.8609 24.1686 12.9053 24.192 12.9546 24.2135C12.8204 24.2651 12.6964 24.2809 12.6025 24.252C12.5432 24.234 12.5088 24.2071 12.4644 24.1837C12.5986 24.1322 12.7177 24.1182 12.8166 24.1452ZM15.8952 24.396C15.8307 24.412 15.771 24.4333 15.7016 24.4439C15.5875 24.4615 15.4838 24.4308 15.4051 24.3662C15.4697 24.3503 15.5293 24.329 15.5987 24.3184C15.7128 24.3008 15.8166 24.3315 15.8952 24.396ZM13.9467 24.064C13.981 24.107 13.9112 24.1426 13.7276 24.1725C13.6833 24.1492 13.624 24.1275 13.5946 24.1024C13.5454 24.0612 13.63 24.0238 13.8086 23.9956C13.8579 24.0172 13.9023 24.0406 13.9467 24.064ZM24.4205 22.1615C24.4548 22.2045 24.3851 22.2401 24.2016 22.2701C24.1572 22.2467 24.0979 22.2251 24.0685 22.2C24.0193 22.1587 24.1038 22.1214 24.2824 22.0932C24.3317 22.1148 24.3761 22.1382 24.4205 22.1615ZM38.7815 9.54042C38.8258 9.56378 38.8702 9.58714 38.9196 9.60873C38.7854 9.66027 38.6614 9.67606 38.5675 9.64721C38.5083 9.62917 38.4738 9.60226 38.4295 9.5789C38.5637 9.52736 38.6827 9.51335 38.7815 9.54042ZM52.4889 2.85954C52.3699 2.87177 52.271 2.8465 52.1875 2.78012C52.252 2.76418 52.3117 2.74286 52.3811 2.73229C52.4952 2.71469 52.5989 2.74536 52.6776 2.80994C52.613 2.82767 52.5485 2.84359 52.4889 2.85954ZM59.7393 2.45702C59.7836 2.48038 59.828 2.50375 59.8774 2.52533C59.7432 2.57687 59.6192 2.59266 59.5253 2.56381C59.4661 2.54578 59.4316 2.51886 59.3873 2.4955C59.5215 2.44396 59.6404 2.43174 59.7393 2.45702ZM108.895 0.942899C108.94 0.96626 108.984 0.989622 109.033 1.01121C108.899 1.06275 108.775 1.07854 108.681 1.04969C108.622 1.03165 108.587 1.00474 108.543 0.981379C108.677 0.929838 108.796 0.917615 108.895 0.942899ZM353.447 16.0956C353.511 16.0797 353.576 16.0638 353.635 16.046C353.779 16.0947 353.823 16.1395 353.743 16.1733C353.694 16.1946 353.619 16.207 353.555 16.2229C353.406 16.1742 353.372 16.1312 353.447 16.0956Z" fill="#FFE492"/>
</svg>
