<svg width="654" height="580" viewBox="0 0 654 580" fill="none" xmlns="http://www.w3.org/2000/svg">
<path d="M625.655 264.957C626.072 270.034 626.352 275.149 626.492 280.297L623.993 280.365C624.062 282.902 624.097 285.447 624.097 288C624.097 290.553 624.062 293.098 623.993 295.635L626.492 295.703C626.352 300.851 626.072 305.965 625.655 311.043L623.163 310.838C622.745 315.921 622.19 320.967 621.499 325.971L623.976 326.313C623.273 331.408 622.432 336.46 621.457 341.467L619.003 340.989C618.029 345.989 616.92 350.942 615.679 355.846L618.103 356.459C616.843 361.438 615.449 366.367 613.924 371.242L611.538 370.495C610.02 375.351 608.37 380.152 606.594 384.895L608.936 385.772C607.136 390.577 605.208 395.323 603.155 400.006L600.865 399.002C598.824 403.658 596.658 408.251 594.371 412.777L596.603 413.905C594.291 418.481 591.857 422.99 589.305 427.426L587.138 426.18C584.605 430.583 581.955 434.915 579.191 439.173L581.288 440.534C578.498 444.831 575.595 449.052 572.581 453.193L570.559 451.722C567.572 455.826 564.475 459.852 561.272 463.795L563.213 465.371C559.985 469.345 556.651 473.235 553.215 477.038L551.36 475.362C547.958 479.127 544.455 482.806 540.855 486.394L542.62 488.165C538.996 491.777 535.274 495.299 531.459 498.725L529.789 496.865C526.014 500.255 522.148 503.551 518.194 506.75L519.766 508.694C515.789 511.911 511.724 515.03 507.575 518.047L506.104 516.025C502.003 519.007 497.818 521.89 493.554 524.668L494.918 526.762C490.635 529.553 486.273 532.239 481.836 534.817L480.58 532.656C476.198 535.202 471.742 537.642 467.216 539.972L468.36 542.195C463.817 544.533 459.205 546.762 454.526 548.877L453.496 546.599C448.88 548.686 444.2 550.661 439.458 552.522L440.371 554.849C435.618 556.714 430.803 558.465 425.932 560.097L425.137 557.726C420.337 559.335 415.481 560.828 410.572 562.201L411.246 564.609C406.332 565.984 401.366 567.241 396.351 568.376L395.799 565.938C390.865 567.055 385.883 568.053 380.857 568.929L381.287 571.392C376.264 572.267 371.197 573.022 366.09 573.652L365.784 571.171C360.767 571.79 355.71 572.288 350.617 572.663L350.8 575.156C345.72 575.53 340.604 575.781 335.455 575.906L335.394 573.407C332.854 573.469 330.306 573.5 327.751 573.5C325.195 573.5 322.647 573.469 320.107 573.407L320.046 575.906C314.898 575.781 309.782 575.53 304.701 575.156L304.884 572.663C299.792 572.288 294.735 571.79 289.718 571.171L289.411 573.652C284.305 573.022 279.238 572.267 274.215 571.392L274.644 568.929C269.618 568.053 264.637 567.055 259.702 565.938L259.15 568.376C254.136 567.241 249.17 565.984 244.256 564.609L244.93 562.201C240.021 560.828 235.164 559.335 230.364 557.726L229.57 560.097C224.698 558.465 219.884 556.714 215.131 554.849L216.044 552.522C211.302 550.661 206.621 548.686 202.005 546.599L200.975 548.877C196.297 546.762 191.684 544.533 187.142 542.195L188.286 539.972C183.76 537.642 179.304 535.202 174.922 532.656L173.666 534.817C169.228 532.239 164.866 529.553 160.583 526.762L161.948 524.668C157.684 521.889 153.499 519.007 149.397 516.025L147.927 518.047C143.777 515.03 139.712 511.911 135.735 508.694L137.308 506.75C133.353 503.551 129.487 500.255 125.713 496.865L124.042 498.725C120.228 495.299 116.506 491.777 112.882 488.165L114.646 486.394C111.046 482.806 107.543 479.127 104.141 475.362L102.286 477.038C98.8504 473.235 95.5166 469.345 92.2887 465.371L94.2292 463.795C91.0269 459.852 87.9298 455.826 84.9421 451.721L82.9208 453.193C79.9068 449.052 77.003 444.831 74.2136 440.534L76.3105 439.172C73.547 434.915 70.8967 430.583 68.3639 426.18L66.1968 427.426C63.6448 422.99 61.2108 418.481 58.8989 413.905L61.1303 412.777C58.8437 408.251 56.6776 403.658 54.6362 399.002L52.3466 400.006C50.2935 395.323 48.3652 390.577 46.5658 385.772L48.9071 384.895C47.1311 380.152 45.4818 375.351 43.9631 370.496L41.5771 371.242C40.0525 366.367 38.6583 361.438 37.3985 356.459L39.8221 355.846C38.5815 350.942 37.4723 345.989 36.4985 340.989L34.0446 341.467C33.0692 336.46 32.2283 331.408 31.5256 326.313L34.0021 325.972C33.3118 320.967 32.7561 315.921 32.3385 310.838L29.8469 311.043C29.4298 305.966 29.1494 300.851 29.0091 295.703L31.5082 295.635C31.4391 293.098 31.4043 290.553 31.4043 288C31.4043 285.447 31.4391 282.902 31.5082 280.365L29.0091 280.297C29.1494 275.149 29.4298 270.035 29.8469 264.957L32.3385 265.162C32.7561 260.079 33.3118 255.033 34.0021 250.029L31.5255 249.687C32.2283 244.592 33.0692 239.54 34.0446 234.533L36.4984 235.011C37.4723 230.011 38.5815 225.058 39.8221 220.154L37.3985 219.541C38.6583 214.562 40.0524 209.633 41.577 204.758L43.9631 205.505C45.4817 200.649 47.1311 195.848 48.9071 191.105L46.5658 190.228C48.3652 185.423 50.2935 180.677 52.3466 175.994L54.6362 176.998C56.6776 172.342 58.8437 167.749 61.1303 163.223L58.8989 162.095C61.2108 157.519 63.6448 153.01 66.1968 148.574L68.3639 149.82C70.8967 145.417 73.547 141.085 76.3105 136.827L74.2136 135.466C77.0031 131.169 79.9068 126.948 82.9209 122.807L84.9422 124.278C87.9298 120.174 91.0269 116.148 94.2292 112.205L92.2887 110.629C95.5166 106.655 98.8505 102.765 102.286 98.9624L104.141 100.638C107.543 96.8729 111.047 93.1942 114.646 89.606L112.882 87.8353C116.506 84.2227 120.228 80.7013 124.042 77.2749L125.713 79.1348C129.487 75.7448 133.353 72.4486 137.308 69.25L135.735 67.3063C139.712 64.0893 143.778 60.9703 147.927 57.9532L149.397 59.9752C153.499 56.9927 157.684 54.1105 161.948 51.3324L160.583 49.2378C164.866 46.4473 169.228 43.761 173.666 41.1827L174.922 43.3443C179.304 40.7982 183.76 38.3582 188.286 36.0281L187.142 33.8053C191.684 31.4668 196.297 29.2381 200.976 27.1229L202.005 29.4009C206.621 27.3141 211.302 25.3387 216.044 23.4781L215.131 21.1509C219.884 19.2859 224.698 17.5354 229.57 15.9031L230.364 18.2735C235.164 16.6651 240.021 15.1723 244.93 13.7985L244.256 11.391C249.17 10.0159 254.136 8.759 259.15 7.62386L259.702 10.0622C264.636 8.94526 269.618 7.94713 274.644 7.07111L274.215 4.60824C279.238 3.73275 284.305 2.97825 289.411 2.34797L289.718 4.82914C294.735 4.20992 299.792 3.71155 304.884 3.33718L304.701 0.843912C309.782 0.470446 314.898 0.219406 320.046 0.0938478L320.107 2.5931C322.647 2.53116 325.195 2.5 327.751 2.5C330.306 2.5 332.854 2.53116 335.394 2.5931L335.455 0.0938452C340.604 0.219402 345.72 0.47044 350.8 0.843905L350.617 3.33718C355.71 3.71154 360.767 4.20991 365.784 4.82913L366.09 2.34796C371.197 2.97824 376.264 3.73275 381.286 4.60823L380.857 7.0711C385.883 7.94712 390.865 8.94525 395.799 10.0622L396.351 7.62385C401.366 8.75899 406.332 10.0158 411.246 11.391L410.572 13.7985C415.481 15.1723 420.337 16.6651 425.137 18.2735L425.932 15.9031C430.803 17.5354 435.618 19.2859 440.371 21.1509L439.458 23.4782C444.2 25.3387 448.88 27.3141 453.496 29.4009L454.526 27.1229C459.205 29.2381 463.817 31.4669 468.36 33.8054L467.216 36.0281C471.742 38.3582 476.198 40.7982 480.58 43.3444L481.836 41.1828C486.273 43.761 490.635 46.4473 494.918 49.2378L493.554 51.3325C497.818 54.1105 502.003 56.9927 506.104 59.9752L507.575 57.9532C511.724 60.9704 515.789 64.0893 519.766 67.3063L518.194 69.25C522.148 72.4486 526.014 75.7448 529.789 79.1348L531.459 77.2749C535.274 80.7013 538.996 84.2228 542.62 87.8354L540.855 89.606C544.455 93.1942 547.958 96.873 551.36 100.638L553.215 98.9624C556.651 102.765 559.985 106.655 563.213 110.629L561.272 112.205C564.475 116.148 567.572 120.174 570.559 124.279L572.581 122.807C575.595 126.948 578.498 131.169 581.288 135.466L579.191 136.827C581.955 141.085 584.605 145.417 587.138 149.82L589.305 148.574C591.857 153.01 594.291 157.519 596.603 162.095L594.371 163.223C596.658 167.749 598.824 172.342 600.865 176.998L603.155 175.994C605.208 180.677 607.136 185.423 608.936 190.228L606.594 191.105C608.37 195.848 610.02 200.649 611.538 205.504L613.924 204.758C615.449 209.633 616.843 214.562 618.103 219.541L615.679 220.154C616.92 225.058 618.029 230.011 619.003 235.011L621.457 234.533C622.432 239.54 623.273 244.592 623.976 249.687L621.499 250.028C622.19 255.033 622.745 260.079 623.163 265.162L625.655 264.957Z" stroke="#F44336" stroke-width="5" stroke-dasharray="15 15"/>
<path d="M501.183 265.569C501.861 270.482 502.319 275.462 502.548 280.499L500.051 280.613C500.162 283.062 500.218 285.524 500.218 288C500.218 290.476 500.162 292.938 500.051 295.387L502.548 295.501C502.319 300.538 501.861 305.518 501.183 310.431L498.707 310.09C498.03 314.998 497.131 319.838 496.019 324.6L498.453 325.168C497.312 330.059 495.949 334.87 494.377 339.59L492.005 338.8C490.445 343.484 488.674 348.079 486.704 352.573L488.993 353.577C486.982 358.164 484.766 362.648 482.356 367.018L480.167 365.811C477.787 370.126 475.216 374.328 472.463 378.407L474.535 379.806C471.74 383.949 468.76 387.966 465.608 391.846L463.668 390.27C460.565 394.09 457.293 397.775 453.861 401.317L455.657 403.056C452.184 406.64 448.551 410.078 444.768 413.36L443.13 411.471C439.417 414.692 435.558 417.76 431.563 420.665L433.033 422.687C429.003 425.618 424.837 428.384 420.546 430.976L419.253 428.836C415.051 431.374 410.727 433.743 406.292 435.932L407.398 438.174C402.935 440.377 398.362 442.4 393.687 444.234L392.774 441.907C388.209 443.698 383.547 445.306 378.796 446.721L379.51 449.117C374.751 450.536 369.905 451.764 364.982 452.792L364.471 450.345C359.682 451.345 354.819 452.153 349.891 452.761L350.197 455.243C345.277 455.85 340.293 456.26 335.253 456.465L335.152 453.967C332.698 454.067 330.23 454.117 327.751 454.117C325.271 454.117 322.804 454.067 320.35 453.967L320.248 456.465C315.209 456.26 310.224 455.85 305.304 455.243L305.61 452.761C300.682 452.153 295.819 451.345 291.03 450.345L290.519 452.792C285.596 451.764 280.75 450.536 275.991 449.117L276.705 446.721C271.955 445.306 267.292 443.698 262.727 441.907L261.814 444.234C257.139 442.4 252.566 440.377 248.103 438.174L249.209 435.932C244.774 433.743 240.45 431.374 236.248 428.836L234.956 430.976C230.664 428.384 226.498 425.618 222.468 422.687L223.938 420.665C219.943 417.76 216.084 414.692 212.371 411.471L210.733 413.36C206.95 410.078 203.317 406.64 199.844 403.056L201.64 401.317C198.208 397.775 194.936 394.09 191.834 390.27L189.893 391.846C186.741 387.966 183.762 383.949 180.966 379.806L183.038 378.407C180.286 374.328 177.714 370.126 175.334 365.811L173.145 367.018C170.735 362.648 168.519 358.164 166.508 353.577L168.797 352.573C166.827 348.079 165.056 343.484 163.496 338.8L161.124 339.59C159.552 334.87 158.189 330.059 157.048 325.168L159.482 324.6C158.371 319.838 157.471 314.998 156.794 310.09L154.318 310.431C153.64 305.518 153.182 300.538 152.953 295.501L155.45 295.387C155.339 292.938 155.283 290.476 155.283 288C155.283 285.524 155.339 283.062 155.45 280.613L152.953 280.499C153.182 275.462 153.64 270.482 154.318 265.569L156.794 265.91C157.471 261.002 158.371 256.162 159.482 251.4L157.048 250.832C158.189 245.941 159.552 241.13 161.124 236.41L163.496 237.2C165.056 232.516 166.827 227.921 168.797 223.427L166.508 222.423C168.519 217.836 170.735 213.352 173.145 208.982L175.334 210.189C177.714 205.874 180.286 201.672 183.038 197.593L180.966 196.194C183.762 192.051 186.741 188.034 189.893 184.154L191.834 185.73C194.936 181.91 198.208 178.225 201.64 174.683L199.844 172.944C203.317 169.36 206.95 165.922 210.733 162.64L212.371 164.529C216.084 161.308 219.943 158.24 223.938 155.335L222.468 153.313C226.498 150.382 230.664 147.616 234.956 145.024L236.248 147.164C240.45 144.626 244.774 142.257 249.209 140.068L248.103 137.826C252.566 135.623 257.139 133.6 261.814 131.766L262.727 134.093C267.292 132.302 271.955 130.694 276.705 129.278L275.991 126.883C280.75 125.464 285.596 124.236 290.519 123.208L291.03 125.655C295.819 124.655 300.682 123.847 305.61 123.239L305.304 120.757C310.224 120.15 315.209 119.74 320.248 119.535L320.35 122.033C322.804 121.933 325.271 121.883 327.751 121.883C330.23 121.883 332.698 121.933 335.152 122.033L335.253 119.535C340.293 119.74 345.277 120.15 350.197 120.757L349.891 123.239C354.819 123.847 359.682 124.655 364.471 125.655L364.982 123.208C369.905 124.236 374.751 125.464 379.51 126.883L378.796 129.278C383.547 130.694 388.209 132.302 392.774 134.093L393.687 131.766C398.362 133.6 402.935 135.623 407.398 137.826L406.292 140.068C410.727 142.257 415.051 144.626 419.253 147.164L420.546 145.024C424.837 147.616 429.003 150.382 433.033 153.313L431.563 155.335C435.558 158.24 439.417 161.308 443.13 164.529L444.768 162.64C448.551 165.922 452.184 169.36 455.657 172.944L453.861 174.683C457.293 178.225 460.565 181.91 463.668 185.73L465.608 184.154C468.76 188.034 471.74 192.051 474.535 196.194L472.463 197.593C475.216 201.672 477.787 205.874 480.167 210.189L482.356 208.982C484.766 213.352 486.982 217.836 488.993 222.423L486.704 223.427C488.674 227.921 490.445 232.516 492.005 237.2L494.377 236.41C495.949 241.13 497.312 245.941 498.453 250.832L496.019 251.4C497.131 256.162 498.03 261.002 498.707 265.91L501.183 265.569Z" stroke="#F44336" stroke-width="5" stroke-dasharray="15 15"/>
<ellipse cx="30.2916" cy="31.4802" rx="30.2916" ry="31.4802" transform="matrix(0.00562712 0.999984 -0.999978 0.00663408 63 260)" fill="#FF5758"/>
<ellipse cx="30.2916" cy="31.4802" rx="30.2916" ry="31.4802" transform="matrix(0.00562712 0.999984 -0.999978 0.00663408 476.959 519)" fill="#FF5758"/>
<ellipse cx="502.718" cy="288.436" rx="31.6479" ry="30.4992" fill="#228AEA"/>
<ellipse cx="328.648" cy="456.499" rx="31.6479" ry="30.4992" fill="#FFDC4D"/>
<ellipse cx="152.648" cy="288.499" rx="31.6479" ry="30.4992" fill="#37A3FF"/>
<ellipse cx="152.648" cy="525.499" rx="31.6479" ry="30.4992" fill="#228AEA"/>
<ellipse cx="510.648" cy="58.4992" rx="31.6479" ry="30.4992" fill="#37A3FF"/>
<ellipse cx="621.648" cy="349.499" rx="31.6479" ry="30.4992" fill="#00CA75"/>
<mask id="mask0_985_14" style="mask-type:alpha" maskUnits="userSpaceOnUse" x="590" y="319" width="64" height="61">
<ellipse cx="621.648" cy="349.499" rx="31.6479" ry="30.4992" fill="#C4C4C4"/>
</mask>
<g mask="url(#mask0_985_14)">
</g>
<ellipse cx="329.107" cy="119.383" rx="31.6479" ry="30.4992" fill="#00CA75"/>
<mask id="mask1_985_14" style="mask-type:alpha" maskUnits="userSpaceOnUse" x="297" y="88" width="64" height="62">
<ellipse cx="329.107" cy="119.383" rx="31.6479" ry="30.4992" fill="#C4C4C4"/>
</mask>
<g mask="url(#mask1_985_14)">
</g>
<ellipse cx="155.648" cy="50.4992" rx="31.6479" ry="30.4992" fill="#FFDC4D"/>
<g filter="url(#filter0_d_985_14)">
<rect x="282.991" y="244.865" width="90.4225" height="87.1407" rx="10" fill="white"/>
</g>
<path d="M163.362 297.563L164.658 288.695H156.552V282.94C156.552 280.514 157.685 278.149 161.315 278.149H165V270.599C165 270.599 161.656 270 158.459 270C151.783 270 147.42 274.247 147.42 281.936V288.695H140V297.563H147.42V319H156.552V297.563H163.362Z" fill="white"/>
<path d="M522.362 67.5625L523.658 58.6946H515.552V52.94C515.552 50.5139 516.685 48.1491 520.315 48.1491H524V40.5991C524 40.5991 520.656 40 517.459 40C510.783 40 506.42 44.2473 506.42 51.9361V58.6946H499V67.5625H506.42V89H515.552V67.5625H522.362Z" fill="white"/>
<path d="M345 119.374C345 128.503 338.646 135 329.262 135C320.266 135 313 127.852 313 119C313 110.148 320.266 103 329.262 103C333.643 103 337.328 104.581 340.167 107.187L335.741 111.374C329.951 105.877 319.184 110.006 319.184 119C319.184 124.581 323.715 129.103 329.262 129.103C335.702 129.103 338.115 124.561 338.495 122.206H329.262V116.703H344.744C344.895 117.523 345 118.31 345 119.374Z" fill="white"/>
<path d="M638.04 349.94C638.04 359.069 631.685 365.566 622.302 365.566C613.305 365.566 606.04 358.418 606.04 349.566C606.04 340.714 613.305 333.566 622.302 333.566C626.682 333.566 630.367 335.147 633.207 337.753L628.781 341.94C622.99 336.443 612.223 340.572 612.223 349.566C612.223 355.147 616.754 359.669 622.302 359.669C628.741 359.669 631.154 355.127 631.535 352.772H622.302V347.269H637.784C637.935 348.088 638.04 348.876 638.04 349.94Z" fill="white"/>
<path d="M516.608 280.779C516.629 281.072 516.629 281.365 516.629 281.658C516.629 290.599 509.824 300.901 497.386 300.901C493.554 300.901 489.994 299.791 487 297.865C487.544 297.928 488.068 297.949 488.633 297.949C491.795 297.949 494.706 296.881 497.03 295.059C494.056 294.996 491.565 293.049 490.706 290.369C491.125 290.431 491.544 290.473 491.984 290.473C492.591 290.473 493.198 290.39 493.763 290.243C490.664 289.615 488.34 286.893 488.34 283.605V283.522C489.24 284.024 490.287 284.338 491.397 284.38C489.575 283.166 488.382 281.093 488.382 278.747C488.382 277.491 488.717 276.339 489.303 275.334C492.633 279.438 497.637 282.119 503.249 282.412C503.144 281.909 503.081 281.386 503.081 280.862C503.081 277.135 506.096 274.099 509.844 274.099C511.792 274.099 513.551 274.916 514.786 276.235C516.315 275.942 517.78 275.376 519.079 274.602C518.576 276.172 517.508 277.491 516.105 278.329C517.466 278.182 518.785 277.805 520 277.282C519.079 278.622 517.927 279.815 516.608 280.779Z" fill="white"/>
<path d="M165.608 518.68C165.629 518.973 165.629 519.266 165.629 519.559C165.629 528.5 158.824 538.802 146.386 538.802C142.554 538.802 138.994 537.692 136 535.766C136.544 535.829 137.068 535.85 137.633 535.85C140.795 535.85 143.706 534.782 146.03 532.96C143.056 532.897 140.565 530.95 139.706 528.27C140.125 528.332 140.544 528.374 140.984 528.374C141.591 528.374 142.198 528.291 142.763 528.144C139.664 527.516 137.34 524.794 137.34 521.506V521.423C138.24 521.925 139.287 522.239 140.397 522.281C138.575 521.067 137.382 518.994 137.382 516.648C137.382 515.392 137.717 514.24 138.303 513.235C141.633 517.339 146.637 520.02 152.249 520.313C152.144 519.81 152.081 519.287 152.081 518.763C152.081 515.036 155.096 512 158.844 512C160.792 512 162.551 512.817 163.786 514.136C165.315 513.843 166.78 513.277 168.079 512.503C167.576 514.073 166.508 515.392 165.105 516.23C166.466 516.083 167.785 515.706 169 515.183C168.079 516.523 166.927 517.716 165.608 518.68Z" fill="white"/>
<path d="M320.715 471H314.496V450.971H320.715V471ZM317.602 448.238C315.613 448.238 314 446.591 314 444.602C314 443.647 314.379 442.731 315.055 442.055C315.731 441.38 316.647 441 317.602 441C318.557 441 319.474 441.38 320.149 442.055C320.825 442.731 321.204 443.647 321.204 444.602C321.204 446.591 319.59 448.238 317.602 448.238ZM343.993 471H337.787V461.25C337.787 458.926 337.74 455.946 334.553 455.946C331.32 455.946 330.824 458.471 330.824 461.082V471H324.611V450.971H330.576V453.703H330.663C331.494 452.129 333.522 450.468 336.548 450.468C342.843 450.468 344 454.613 344 459.998V471H343.993Z" fill="black"/>
<path d="M147.715 66H141.496V45.9705H147.715V66ZM144.602 43.2383C142.613 43.2383 141 41.591 141 39.6021C141 38.6468 141.379 37.7306 142.055 37.055C142.731 36.3795 143.647 36 144.602 36C145.557 36 146.474 36.3795 147.149 37.055C147.825 37.7306 148.204 38.6468 148.204 39.6021C148.204 41.591 146.59 43.2383 144.602 43.2383ZM170.993 66H164.787V56.2498C164.787 53.9261 164.74 50.9461 161.553 50.9461C158.32 50.9461 157.824 53.4707 157.824 56.0824V66H151.611V45.9705H157.576V48.7027H157.663C158.494 47.129 160.522 45.4683 163.548 45.4683C169.843 45.4683 171 49.6135 171 54.9975V66H170.993Z" fill="black"/>
<path d="M31.5068 282.639C27.1592 282.639 23.6523 286.146 23.6523 290.493C23.6523 294.841 27.1592 298.348 31.5068 298.348C35.8545 298.348 39.3613 294.841 39.3613 290.493C39.3613 286.146 35.8545 282.639 31.5068 282.639ZM31.5068 295.6C28.6973 295.6 26.4004 293.31 26.4004 290.493C26.4004 287.677 28.6904 285.387 31.5068 285.387C34.3232 285.387 36.6133 287.677 36.6133 290.493C36.6133 293.31 34.3164 295.6 31.5068 295.6ZM41.5146 282.317C41.5146 283.336 40.6943 284.149 39.6826 284.149C38.6641 284.149 37.8506 283.329 37.8506 282.317C37.8506 281.306 38.6709 280.485 39.6826 280.485C40.6943 280.485 41.5146 281.306 41.5146 282.317ZM46.7168 284.177C46.6006 281.723 46.04 279.549 44.2422 277.758C42.4512 275.967 40.2773 275.406 37.8232 275.283C35.2939 275.14 27.7129 275.14 25.1836 275.283C22.7363 275.399 20.5625 275.96 18.7646 277.751C16.9668 279.542 16.4131 281.716 16.29 284.17C16.1465 286.699 16.1465 294.28 16.29 296.81C16.4062 299.264 16.9668 301.438 18.7646 303.229C20.5625 305.02 22.7295 305.58 25.1836 305.703C27.7129 305.847 35.2939 305.847 37.8232 305.703C40.2773 305.587 42.4512 305.026 44.2422 303.229C46.0332 301.438 46.5938 299.264 46.7168 296.81C46.8604 294.28 46.8604 286.706 46.7168 284.177ZM43.4492 299.523C42.916 300.863 41.8838 301.896 40.5371 302.436C38.5205 303.235 33.7354 303.051 31.5068 303.051C29.2783 303.051 24.4863 303.229 22.4766 302.436C21.1367 301.902 20.1045 300.87 19.5645 299.523C18.7646 297.507 18.9492 292.722 18.9492 290.493C18.9492 288.265 18.7715 283.473 19.5645 281.463C20.0977 280.123 21.1299 279.091 22.4766 278.551C24.4932 277.751 29.2783 277.936 31.5068 277.936C33.7354 277.936 38.5273 277.758 40.5371 278.551C41.877 279.084 42.9092 280.116 43.4492 281.463C44.249 283.479 44.0645 288.265 44.0645 290.493C44.0645 292.722 44.249 297.514 43.4492 299.523Z" fill="white"/>
<path d="M445.466 541.639C441.118 541.639 437.611 545.146 437.611 549.493C437.611 553.841 441.118 557.348 445.466 557.348C449.813 557.348 453.32 553.841 453.32 549.493C453.32 545.146 449.813 541.639 445.466 541.639ZM445.466 554.6C442.656 554.6 440.359 552.31 440.359 549.493C440.359 546.677 442.649 544.387 445.466 544.387C448.282 544.387 450.572 546.677 450.572 549.493C450.572 552.31 448.275 554.6 445.466 554.6ZM455.474 541.317C455.474 542.336 454.653 543.149 453.642 543.149C452.623 543.149 451.81 542.329 451.81 541.317C451.81 540.306 452.63 539.485 453.642 539.485C454.653 539.485 455.474 540.306 455.474 541.317ZM460.676 543.177C460.56 540.723 459.999 538.549 458.201 536.758C456.41 534.967 454.236 534.406 451.782 534.283C449.253 534.14 441.672 534.14 439.143 534.283C436.695 534.399 434.521 534.96 432.724 536.751C430.926 538.542 430.372 540.716 430.249 543.17C430.105 545.699 430.105 553.28 430.249 555.81C430.365 558.264 430.926 560.438 432.724 562.229C434.521 564.02 436.688 564.58 439.143 564.703C441.672 564.847 449.253 564.847 451.782 564.703C454.236 564.587 456.41 564.026 458.201 562.229C459.992 560.438 460.553 558.264 460.676 555.81C460.819 553.28 460.819 545.706 460.676 543.177ZM457.408 558.523C456.875 559.863 455.843 560.896 454.496 561.436C452.479 562.235 447.694 562.051 445.466 562.051C443.237 562.051 438.445 562.229 436.436 561.436C435.096 560.902 434.063 559.87 433.523 558.523C432.724 556.507 432.908 551.722 432.908 549.493C432.908 547.265 432.73 542.473 433.523 540.463C434.057 539.123 435.089 538.091 436.436 537.551C438.452 536.751 443.237 536.936 445.466 536.936C447.694 536.936 452.486 536.758 454.496 537.551C455.836 538.084 456.868 539.116 457.408 540.463C458.208 542.479 458.023 547.265 458.023 549.493C458.023 551.722 458.208 556.514 457.408 558.523Z" fill="white"/>
<path d="M328.5 291.812C336.729 291.812 343.406 285.136 343.406 276.906C343.406 268.677 336.729 262 328.5 262C320.271 262 313.594 268.677 313.594 276.906C313.594 285.136 320.271 291.812 328.5 291.812ZM341.75 295.125H336.046C333.748 296.181 331.191 296.781 328.5 296.781C325.809 296.781 323.262 296.181 320.954 295.125H315.25C307.931 295.125 302 301.056 302 308.375V310.031C302 312.774 304.226 315 306.969 315H350.031C352.774 315 355 312.774 355 310.031V308.375C355 301.056 349.069 295.125 341.75 295.125Z" fill="black"/>
<defs>
<filter id="filter0_d_985_14" x="243.991" y="209.865" width="168.423" height="165.141" filterUnits="userSpaceOnUse" color-interpolation-filters="sRGB">
<feFlood flood-opacity="0" result="BackgroundImageFix"/>
<feColorMatrix in="SourceAlpha" type="matrix" values="0 0 0 0 0 0 0 0 0 0 0 0 0 0 0 0 0 0 127 0" result="hardAlpha"/>
<feMorphology radius="11" operator="erode" in="SourceAlpha" result="effect1_dropShadow_985_14"/>
<feOffset dy="4"/>
<feGaussianBlur stdDeviation="25"/>
<feComposite in2="hardAlpha" operator="out"/>
<feColorMatrix type="matrix" values="0 0 0 0 0 0 0 0 0 0 0 0 0 0 0 0 0 0 0.25 0"/>
<feBlend mode="normal" in2="BackgroundImageFix" result="effect1_dropShadow_985_14"/>
<feBlend mode="normal" in="SourceGraphic" in2="effect1_dropShadow_985_14" result="shape"/>
</filter>
</defs>
</svg>
