<svg width="647" height="576" viewBox="0 0 647 576" fill="none" xmlns="http://www.w3.org/2000/svg">
<path d="M632.654 264.957C633.071 270.034 633.352 275.149 633.492 280.297L630.993 280.365C631.062 282.902 631.097 285.447 631.097 288C631.097 290.553 631.062 293.098 630.993 295.635L633.492 295.703C633.352 300.851 633.071 305.965 632.654 311.043L630.163 310.838C629.745 315.921 629.189 320.967 628.499 325.971L630.976 326.313C630.273 331.408 629.432 336.46 628.457 341.467L626.003 340.989C625.029 345.989 623.92 350.942 622.679 355.846L625.103 356.459C623.843 361.438 622.449 366.367 620.924 371.242L618.538 370.495C617.02 375.351 615.37 380.152 613.594 384.895L615.935 385.772C614.136 390.577 612.208 395.323 610.155 400.006L607.865 399.002C605.824 403.658 603.658 408.251 601.371 412.777L603.602 413.905C601.291 418.481 598.857 422.99 596.305 427.426L594.137 426.18C591.605 430.583 588.954 434.915 586.191 439.173L588.288 440.534C585.498 444.831 582.594 449.052 579.58 453.193L577.559 451.722C574.571 455.826 571.474 459.852 568.272 463.795L570.213 465.371C566.985 469.345 563.651 473.235 560.215 477.038L558.36 475.362C554.958 479.127 551.455 482.806 547.855 486.394L549.62 488.165C545.995 491.777 542.274 495.299 538.459 498.725L536.788 496.865C533.014 500.255 529.148 503.551 525.194 506.75L526.766 508.694C522.789 511.911 518.724 515.03 514.574 518.047L513.104 516.025C509.002 519.007 504.817 521.89 500.553 524.668L501.918 526.762C497.635 529.553 493.273 532.239 488.836 534.817L487.58 532.656C483.197 535.202 478.741 537.642 474.215 539.972L475.36 542.195C470.817 544.533 466.205 546.762 461.526 548.877L460.496 546.599C455.88 548.686 451.2 550.661 446.458 552.522L447.371 554.849C442.617 556.714 437.803 558.465 432.931 560.097L432.137 557.726C427.337 559.335 422.481 560.828 417.572 562.201L418.245 564.609C413.332 565.984 408.366 567.241 403.351 568.376L402.799 565.938C397.865 567.055 392.883 568.053 387.857 568.929L388.286 571.392C383.263 572.267 378.197 573.022 373.09 573.652L372.784 571.171C367.766 571.79 362.71 572.288 357.617 572.663L357.8 575.156C352.72 575.53 347.603 575.781 342.455 575.906L342.394 573.407C339.854 573.469 337.306 573.5 334.751 573.5C332.195 573.5 329.647 573.469 327.107 573.407L327.046 575.906C321.898 575.781 316.782 575.53 311.701 575.156L311.884 572.663C306.791 572.288 301.735 571.79 296.717 571.171L296.411 573.652C291.304 573.022 286.238 572.267 281.215 571.392L281.644 568.929C276.618 568.053 271.636 567.055 266.702 565.938L266.15 568.376C261.135 567.241 256.169 565.984 251.256 564.609L251.929 562.201C247.02 560.828 242.164 559.335 237.364 557.726L236.57 560.097C231.698 558.465 226.884 556.714 222.13 554.849L223.043 552.522C218.301 550.661 213.621 548.686 209.005 546.599L207.975 548.877C203.297 546.762 198.684 544.533 194.142 542.195L195.286 539.972C190.76 537.642 186.304 535.202 181.921 532.656L180.665 534.817C176.228 532.239 171.866 529.553 167.583 526.762L168.948 524.668C164.684 521.889 160.499 519.007 156.397 516.025L154.927 518.047C150.777 515.03 146.712 511.911 142.735 508.694L144.307 506.75C140.353 503.551 136.487 500.255 132.713 496.865L131.042 498.725C127.227 495.299 123.506 491.777 119.881 488.165L121.646 486.394C118.046 482.806 114.543 479.127 111.141 475.362L109.286 477.038C105.85 473.235 102.516 469.345 99.2884 465.371L101.229 463.795C98.0266 459.852 94.9296 455.826 91.9419 451.721L89.9206 453.193C86.9066 449.052 84.0028 444.831 81.2134 440.534L83.3103 439.172C80.5467 434.915 77.8965 430.583 75.3636 426.18L73.1966 427.426C70.6445 422.99 68.2105 418.481 65.8986 413.905L68.13 412.777C65.8434 408.251 63.6774 403.658 61.636 399.002L59.3464 400.006C57.2933 395.323 55.365 390.577 53.5656 385.772L55.9068 384.895C54.1308 380.152 52.4815 375.351 50.9628 370.496L48.5768 371.242C47.0522 366.367 45.6581 361.438 44.3982 356.459L46.8219 355.846C45.5813 350.942 44.4721 345.989 43.4982 340.989L41.0443 341.467C40.069 336.46 39.228 331.408 38.5253 326.313L41.0019 325.972C40.3116 320.967 39.7558 315.921 39.3383 310.838L36.8467 311.043C36.4296 305.966 36.1491 300.851 36.0089 295.703L38.508 295.635C38.4388 293.098 38.4041 290.553 38.4041 288C38.4041 285.447 38.4388 282.902 38.508 280.365L36.0089 280.297C36.1491 275.149 36.4296 270.035 36.8467 264.957L39.3383 265.162C39.7558 260.079 40.3116 255.033 41.0019 250.029L38.5253 249.687C39.228 244.592 40.069 239.54 41.0443 234.533L43.4982 235.011C44.4721 230.011 45.5812 225.058 46.8219 220.154L44.3982 219.541C45.658 214.562 47.0522 209.633 48.5768 204.758L50.9628 205.505C52.4815 200.649 54.1308 195.848 55.9068 191.105L53.5656 190.228C55.365 185.423 57.2932 180.677 59.3463 175.994L61.6359 176.998C63.6774 172.342 65.8434 167.749 68.13 163.223L65.8986 162.095C68.2105 157.519 70.6445 153.01 73.1966 148.574L75.3636 149.82C77.8965 145.417 80.5467 141.085 83.3103 136.827L81.2134 135.466C84.0028 131.169 86.9066 126.948 89.9206 122.807L91.9419 124.278C94.9296 120.174 98.0266 116.148 101.229 112.205L99.2885 110.629C102.516 106.655 105.85 102.765 109.286 98.9624L111.141 100.638C114.543 96.8729 118.046 93.1942 121.646 89.606L119.881 87.8353C123.506 84.2227 127.227 80.7013 131.042 77.2749L132.713 79.1348C136.487 75.7448 140.353 72.4486 144.307 69.25L142.735 67.3063C146.712 64.0893 150.777 60.9703 154.927 57.9532L156.397 59.9752C160.499 56.9927 164.684 54.1105 168.948 51.3324L167.583 49.2378C171.866 46.4473 176.228 43.761 180.666 41.1827L181.921 43.3443C186.304 40.7982 190.76 38.3582 195.286 36.0281L194.141 33.8053C198.684 31.4668 203.297 29.2381 207.975 27.1229L209.005 29.4009C213.621 27.3141 218.301 25.3387 223.043 23.4781L222.13 21.1509C226.884 19.2859 231.698 17.5354 236.57 15.9031L237.364 18.2735C242.164 16.6651 247.02 15.1723 251.929 13.7985L251.256 11.391C256.169 10.0159 261.135 8.759 266.15 7.62386L266.702 10.0622C271.636 8.94526 276.618 7.94713 281.644 7.07111L281.215 4.60824C286.238 3.73275 291.304 2.97825 296.411 2.34797L296.717 4.82914C301.735 4.20992 306.791 3.71155 311.884 3.33718L311.701 0.843912C316.781 0.470446 321.898 0.219406 327.046 0.0938478L327.107 2.5931C329.647 2.53116 332.195 2.5 334.751 2.5C337.306 2.5 339.854 2.53116 342.394 2.5931L342.455 0.0938452C347.603 0.219402 352.72 0.47044 357.8 0.843905L357.617 3.33718C362.71 3.71154 367.766 4.20991 372.784 4.82913L373.09 2.34796C378.197 2.97824 383.263 3.73275 388.286 4.60823L387.857 7.0711C392.883 7.94712 397.865 8.94525 402.799 10.0622L403.351 7.62385C408.366 8.75899 413.332 10.0158 418.245 11.391L417.572 13.7985C422.481 15.1723 427.337 16.6651 432.137 18.2735L432.931 15.9031C437.803 17.5354 442.617 19.2859 447.371 21.1509L446.458 23.4782C451.2 25.3387 455.88 27.3141 460.496 29.4009L461.526 27.1229C466.205 29.2381 470.817 31.4669 475.36 33.8054L474.215 36.0281C478.741 38.3582 483.198 40.7982 487.58 43.3444L488.836 41.1828C493.273 43.761 497.635 46.4473 501.918 49.2378L500.553 51.3325C504.817 54.1105 509.002 56.9927 513.104 59.9752L514.574 57.9532C518.724 60.9704 522.789 64.0893 526.766 67.3063L525.194 69.25C529.148 72.4486 533.014 75.7448 536.788 79.1348L538.459 77.2749C542.274 80.7013 545.995 84.2228 549.62 87.8354L547.855 89.606C551.455 93.1942 554.958 96.873 558.36 100.638L560.215 98.9624C563.651 102.765 566.985 106.655 570.213 110.629L568.272 112.205C571.474 116.148 574.571 120.174 577.559 124.279L579.58 122.807C582.594 126.948 585.498 131.169 588.288 135.466L586.191 136.827C588.954 141.085 591.605 145.417 594.137 149.82L596.305 148.574C598.857 153.01 601.291 157.519 603.602 162.095L601.371 163.223C603.658 167.749 605.824 172.342 607.865 176.998L610.155 175.994C612.208 180.677 614.136 185.423 615.935 190.228L613.594 191.105C615.37 195.848 617.02 200.649 618.538 205.504L620.924 204.758C622.449 209.633 623.843 214.562 625.103 219.541L622.679 220.154C623.92 225.058 625.029 230.011 626.003 235.011L628.457 234.533C629.432 239.54 630.273 244.592 630.976 249.687L628.499 250.028C629.189 255.033 629.745 260.079 630.163 265.162L632.654 264.957Z" stroke="#F44336" stroke-width="5" stroke-dasharray="15 15"/>
<path d="M508.183 265.569C508.861 270.482 509.319 275.462 509.548 280.499L507.05 280.613C507.162 283.062 507.218 285.524 507.218 288C507.218 290.476 507.162 292.938 507.05 295.387L509.548 295.501C509.319 300.538 508.861 305.518 508.183 310.431L505.707 310.09C505.03 314.998 504.13 319.838 503.019 324.6L505.453 325.168C504.311 330.059 502.949 334.87 501.377 339.59L499.005 338.8C497.444 343.484 495.674 348.079 493.703 352.573L495.993 353.577C493.982 358.164 491.765 362.648 489.356 367.018L487.167 365.811C484.787 370.126 482.215 374.328 479.463 378.407L481.535 379.806C478.739 383.949 475.76 387.966 472.608 391.846L470.667 390.27C467.565 394.09 464.293 397.775 460.861 401.317L462.657 403.056C459.184 406.64 455.55 410.078 451.768 413.36L450.13 411.471C446.417 414.692 442.557 417.76 438.563 420.665L440.033 422.687C436.003 425.618 431.836 428.384 427.545 430.976L426.253 428.836C422.051 431.374 417.727 433.743 413.291 435.932L414.398 438.174C409.935 440.377 405.361 442.4 400.687 444.234L399.774 441.907C395.209 443.698 390.546 445.306 385.796 446.721L386.51 449.117C381.751 450.536 376.905 451.764 371.982 452.792L371.471 450.345C366.682 451.345 361.819 452.153 356.891 452.761L357.197 455.243C352.277 455.85 347.292 456.26 342.253 456.465L342.151 453.967C339.697 454.067 337.23 454.117 334.75 454.117C332.271 454.117 329.803 454.067 327.349 453.967L327.248 456.465C322.208 456.26 317.224 455.85 312.303 455.243L312.61 452.761C307.681 452.153 302.818 451.345 298.03 450.345L297.519 452.792C292.596 451.764 287.75 450.536 282.991 449.117L283.705 446.721C278.954 445.306 274.292 443.698 269.727 441.907L268.814 444.234C264.139 442.4 259.565 440.377 255.103 438.174L256.209 435.932C251.774 433.743 247.45 431.374 243.248 428.836L241.955 430.976C237.664 428.384 233.498 425.618 229.468 422.687L230.938 420.665C226.943 417.76 223.084 414.692 219.371 411.471L217.733 413.36C213.95 410.078 210.317 406.64 206.844 403.056L208.639 401.317C205.208 397.775 201.936 394.09 198.833 390.27L196.893 391.846C193.741 387.966 190.761 383.949 187.966 379.806L190.038 378.407C187.285 374.328 184.714 370.126 182.334 365.811L180.145 367.018C177.735 362.648 175.519 358.164 173.508 353.577L175.797 352.573C173.827 348.079 172.056 343.484 170.496 338.8L168.124 339.59C166.552 334.87 165.189 330.059 164.047 325.168L166.482 324.6C165.37 319.838 164.471 314.998 163.794 310.09L161.317 310.431C160.64 305.518 160.182 300.538 159.953 295.501L162.45 295.387C162.339 292.938 162.283 290.476 162.283 288C162.283 285.524 162.339 283.062 162.45 280.613L159.953 280.499C160.182 275.462 160.64 270.482 161.317 265.569L163.794 265.91C164.471 261.002 165.37 256.162 166.482 251.4L164.047 250.832C165.189 245.941 166.552 241.13 168.124 236.41L170.496 237.2C172.056 232.516 173.827 227.921 175.797 223.427L173.508 222.423C175.519 217.836 177.735 213.352 180.145 208.982L182.334 210.189C184.714 205.874 187.285 201.672 190.038 197.593L187.966 196.194C190.761 192.051 193.741 188.034 196.893 184.154L198.833 185.73C201.936 181.91 205.208 178.225 208.639 174.683L206.844 172.944C210.317 169.36 213.95 165.922 217.733 162.64L219.371 164.529C223.084 161.308 226.943 158.24 230.938 155.335L229.468 153.313C233.498 150.382 237.664 147.616 241.955 145.024L243.248 147.164C247.45 144.626 251.774 142.257 256.209 140.068L255.103 137.826C259.565 135.623 264.139 133.6 268.814 131.766L269.727 134.093C274.292 132.302 278.954 130.694 283.705 129.278L282.991 126.883C287.75 125.464 292.596 124.236 297.519 123.208L298.03 125.655C302.819 124.655 307.681 123.847 312.61 123.239L312.304 120.757C317.224 120.15 322.208 119.74 327.248 119.535L327.349 122.033C329.803 121.933 332.271 121.883 334.75 121.883C337.23 121.883 339.697 121.933 342.151 122.033L342.253 119.535C347.292 119.74 352.277 120.15 357.197 120.757L356.891 123.239C361.819 123.847 366.682 124.655 371.471 125.655L371.982 123.208C376.905 124.236 381.751 125.464 386.51 126.883L385.796 129.278C390.546 130.694 395.209 132.302 399.774 134.093L400.687 131.766C405.361 133.6 409.935 135.623 414.398 137.826L413.291 140.068C417.727 142.257 422.051 144.626 426.253 147.164L427.545 145.024C431.836 147.616 436.003 150.382 440.033 153.313L438.563 155.335C442.557 158.24 446.417 161.308 450.13 164.529L451.768 162.64C455.55 165.922 459.184 169.36 462.657 172.944L460.861 174.683C464.293 178.225 467.565 181.91 470.667 185.73L472.608 184.154C475.76 188.034 478.739 192.051 481.535 196.194L479.463 197.593C482.215 201.672 484.787 205.874 487.167 210.189L489.356 208.982C491.765 213.352 493.982 217.836 495.993 222.423L493.703 223.427C495.674 227.921 497.444 232.516 499.005 237.2L501.377 236.41C502.949 241.13 504.311 245.941 505.453 250.832L503.019 251.4C504.13 256.162 505.03 261.002 505.707 265.91L508.183 265.569Z" stroke="#F44336" stroke-width="5" stroke-dasharray="15 15"/>
<ellipse cx="35.9041" cy="284.711" rx="31.6479" ry="35.7113" transform="rotate(89.6499 35.9041 284.711)" fill="#FF5758"/>
<ellipse cx="509.718" cy="288.436" rx="31.6479" ry="30.4992" fill="#37A3FF"/>
<ellipse cx="335.203" cy="456.617" rx="31.6479" ry="30.4992" fill="#FFBF60"/>
<ellipse cx="159.783" cy="288.436" rx="31.6479" ry="30.4992" fill="#37A3FF"/>
<ellipse cx="159.783" cy="525.458" rx="31.6479" ry="30.4992" fill="#37A3FF"/>
<ellipse cx="545.887" cy="92.3691" rx="31.6479" ry="30.4992" fill="#37A3FF"/>
<ellipse cx="614.608" cy="379.933" rx="31.6479" ry="30.4992" fill="#00CA75"/>
<mask id="mask0_985_14" style="mask-type:alpha" maskUnits="userSpaceOnUse" x="582" y="349" width="65" height="62">
<ellipse cx="614.608" cy="379.933" rx="31.6479" ry="30.4992" fill="#C4C4C4"/>
</mask>
<g mask="url(#mask0_985_14)">
</g>
<ellipse cx="336.107" cy="119.383" rx="31.6479" ry="30.4992" fill="#00CA75"/>
<mask id="mask1_985_14" style="mask-type:alpha" maskUnits="userSpaceOnUse" x="304" y="88" width="64" height="62">
<ellipse cx="336.107" cy="119.383" rx="31.6479" ry="30.4992" fill="#C4C4C4"/>
</mask>
<g mask="url(#mask1_985_14)">
</g>
<ellipse cx="162.496" cy="50.5416" rx="31.6479" ry="30.4992" fill="#FFDC4D"/>
<g filter="url(#filter0_d_985_14)">
<rect x="289.991" y="244.865" width="90.4225" height="87.1407" rx="10" fill="white"/>
</g>
<defs>
<filter id="filter0_d_985_14" x="250.991" y="209.865" width="168.423" height="165.141" filterUnits="userSpaceOnUse" color-interpolation-filters="sRGB">
<feFlood flood-opacity="0" result="BackgroundImageFix"/>
<feColorMatrix in="SourceAlpha" type="matrix" values="0 0 0 0 0 0 0 0 0 0 0 0 0 0 0 0 0 0 127 0" result="hardAlpha"/>
<feMorphology radius="11" operator="erode" in="SourceAlpha" result="effect1_dropShadow_985_14"/>
<feOffset dy="4"/>
<feGaussianBlur stdDeviation="25"/>
<feComposite in2="hardAlpha" operator="out"/>
<feColorMatrix type="matrix" values="0 0 0 0 0 0 0 0 0 0 0 0 0 0 0 0 0 0 0.25 0"/>
<feBlend mode="normal" in2="BackgroundImageFix" result="effect1_dropShadow_985_14"/>
<feBlend mode="normal" in="SourceGraphic" in2="effect1_dropShadow_985_14" result="shape"/>
</filter>
</defs>
</svg>
